<?xml version="1.0" encoding="UTF-8" standalone="no"?>
<!-- Created with Inkscape (http://www.inkscape.org/) -->

<svg
   width="176.42363mm"
   height="102.43604mm"
   viewBox="0 0 176.42363 102.43604"
   version="1.1"
   id="svg1"
   sodipodi:docname="ball_sandwich.svg"
   inkscape:version="1.4.2 (ebf0e940, 2025-05-08)"
   xmlns:inkscape="http://www.inkscape.org/namespaces/inkscape"
   xmlns:sodipodi="http://sodipodi.sourceforge.net/DTD/sodipodi-0.dtd"
   xmlns:xlink="http://www.w3.org/1999/xlink"
   xmlns="http://www.w3.org/2000/svg"
   xmlns:svg="http://www.w3.org/2000/svg">
  <sodipodi:namedview
     id="namedview1"
     pagecolor="#ffffff"
     bordercolor="#000000"
     borderopacity="0.25"
     inkscape:showpageshadow="2"
     inkscape:pageopacity="0.0"
     inkscape:pagecheckerboard="0"
     inkscape:deskcolor="#d1d1d1"
     inkscape:document-units="mm"
     inkscape:zoom="0.67145574"
     inkscape:cx="107.2297"
     inkscape:cy="82.65623"
     inkscape:window-width="1696"
     inkscape:window-height="1026"
     inkscape:window-x="10"
     inkscape:window-y="48"
     inkscape:window-maximized="0"
     inkscape:current-layer="layer1" />
  <defs
     id="defs1">
    <marker
       style="overflow:visible"
       id="marker3"
       refX="0"
       refY="0"
       orient="auto-start-reverse"
       inkscape:stockid="Triangle arrow"
       markerWidth="1"
       markerHeight="1"
       viewBox="0 0 1 1"
       inkscape:isstock="true"
       inkscape:collect="always"
       preserveAspectRatio="xMidYMid">
      <path
         transform="scale(0.5)"
         style="fill:context-stroke;fill-rule:evenodd;stroke:context-stroke;stroke-width:1pt"
         d="M 5.77,0 -2.88,5 V -5 Z"
         id="path3" />
    </marker>
    <marker
       style="overflow:visible"
       id="Triangle"
       refX="0"
       refY="0"
       orient="auto-start-reverse"
       inkscape:stockid="Triangle arrow"
       markerWidth="1"
       markerHeight="1"
       viewBox="0 0 1 1"
       inkscape:isstock="true"
       inkscape:collect="always"
       preserveAspectRatio="xMidYMid">
      <path
         transform="scale(0.5)"
         style="fill:context-stroke;fill-rule:evenodd;stroke:context-stroke;stroke-width:1pt"
         d="M 5.77,0 -2.88,5 V -5 Z"
         id="path135" />
    </marker>
    <g
       id="g8">
      <g
         id="glyph-0-0">
        <path
           d="m 2.9375,-6.375 c 0,-0.25 0,-0.265625 -0.234375,-0.265625 C 2.078125,-6 1.203125,-6 0.890625,-6 v 0.3125 c 0.203125,0 0.78125,0 1.296875,-0.265625 v 5.171875 c 0,0.359375 -0.03125,0.46875 -0.921875,0.46875 h -0.3125 V 0 c 0.34375,-0.03125 1.203125,-0.03125 1.609375,-0.03125 0.390625,0 1.265625,0 1.609375,0.03125 v -0.3125 h -0.3125 c -0.90625,0 -0.921875,-0.109375 -0.921875,-0.46875 z m 0,0"
           id="path1-3" />
      </g>
      <g
         id="glyph-0-1">
        <path
           d="m 1.265625,-0.765625 1.0625,-1.03125 c 1.546875,-1.375 2.140625,-1.90625 2.140625,-2.90625 0,-1.140625 -0.890625,-1.9375 -2.109375,-1.9375 -1.125,0 -1.859375,0.921875 -1.859375,1.8125 0,0.546875 0.5,0.546875 0.53125,0.546875 0.171875,0 0.515625,-0.109375 0.515625,-0.53125 0,-0.25 -0.1875,-0.515625 -0.53125,-0.515625 -0.078125,0 -0.09375,0 -0.125,0.015625 0.21875,-0.65625 0.765625,-1.015625 1.34375,-1.015625 0.90625,0 1.328125,0.8125 1.328125,1.625 C 3.5625,-3.90625 3.078125,-3.125 2.515625,-2.5 l -1.90625,2.125 C 0.5,-0.265625 0.5,-0.234375 0.5,0 H 4.203125 L 4.46875,-1.734375 H 4.234375 C 4.171875,-1.4375 4.109375,-1 4,-0.84375 3.9375,-0.765625 3.28125,-0.765625 3.0625,-0.765625 Z m 0,0"
           id="path2-7" />
      </g>
      <g
         id="glyph-1-0">
        <path
           d="m 3.875,8.515625 -1.75,-3.875 C 2.046875,4.484375 2,4.484375 1.96875,4.484375 c 0,0 -0.0625,0 -0.171875,0.078125 l -0.9375,0.71875 c -0.125,0.109375 -0.125,0.125 -0.125,0.15625 0,0.0625 0.015625,0.109375 0.09375,0.109375 0.0625,0 0.234375,-0.140625 0.34375,-0.21875 C 1.21875,5.28125 1.375,5.171875 1.484375,5.09375 l 1.96875,4.3125 C 3.515625,9.5625 3.5625,9.5625 3.65625,9.5625 c 0.15625,0 0.1875,-0.046875 0.25,-0.1875 L 8.4375,0 C 8.5,-0.140625 8.5,-0.171875 8.5,-0.203125 8.5,-0.296875 8.421875,-0.40625 8.296875,-0.40625 c -0.078125,0 -0.140625,0.0625 -0.21875,0.21875 z m 0,0"
           id="path3-5" />
      </g>
      <g
         id="glyph-1-1">
        <path
           d="m 6.5625,-5.9375 c 0.171875,0 0.359375,0 0.359375,-0.203125 0,-0.203125 -0.1875,-0.203125 -0.359375,-0.203125 H 3.890625 c -1.71875,0 -3.0625,1.3125 -3.0625,2.890625 0,1.59375 1.375,2.890625 3.0625,2.890625 H 6.5625 c 0.171875,0 0.359375,0 0.359375,-0.203125 0,-0.203125 -0.1875,-0.203125 -0.359375,-0.203125 H 3.90625 c -1.578125,0 -2.6875,-1.171875 -2.6875,-2.484375 0,-1.359375 1.140625,-2.484375 2.6875,-2.484375 z M 1.375,0.96875 c -0.171875,0 -0.34375,0 -0.34375,0.203125 0,0.1875 0.171875,0.1875 0.34375,0.1875 h 5.1875 c 0.171875,0 0.359375,0 0.359375,-0.1875 0,-0.203125 -0.1875,-0.203125 -0.359375,-0.203125 z m 0,0"
           id="path4-0" />
      </g>
      <g
         id="glyph-2-0">
        <path
           d="M 1.59375,-0.78125 C 1.5,-0.390625 1.46875,-0.3125 0.6875,-0.3125 c -0.171875,0 -0.265625,0 -0.265625,0.203125 C 0.421875,0 0.515625,0 0.6875,0 H 4.25 C 5.828125,0 7,-1.171875 7,-2.15625 7,-2.875 6.421875,-3.453125 5.453125,-3.5625 6.484375,-3.75 7.53125,-4.484375 7.53125,-5.4375 c 0,-0.734375 -0.65625,-1.375 -1.84375,-1.375 H 2.328125 c -0.1875,0 -0.28125,0 -0.28125,0.203125 0,0.109375 0.09375,0.109375 0.28125,0.109375 0.015625,0 0.203125,0 0.375,0.015625 0.171875,0.03125 0.265625,0.03125 0.265625,0.171875 0,0.03125 -0.015625,0.0625 -0.03125,0.1875 z m 1.5,-2.875 0.625,-2.46875 C 3.8125,-6.46875 3.828125,-6.5 4.25,-6.5 h 1.296875 c 0.875,0 1.078125,0.59375 1.078125,1.03125 0,0.875 -0.859375,1.8125 -2.0625,1.8125 z m -0.4375,3.34375 c -0.140625,0 -0.15625,0 -0.21875,0 -0.109375,-0.015625 -0.140625,-0.03125 -0.140625,-0.109375 0,-0.03125 0,-0.046875 0.0625,-0.21875 l 0.6875,-2.78125 h 1.875 c 0.953125,0 1.15625,0.734375 1.15625,1.15625 C 6.078125,-1.28125 5.1875,-0.3125 4,-0.3125 Z m 0,0"
           id="path5-2" />
      </g>
      <g
         id="glyph-3-0">
        <path
           d="M 0.828125,-0.953125 C 0.90625,-0.5 1.125,0.078125 1.71875,0.078125 1.9375,0.078125 2.1875,0 2.453125,-0.171875 2.5625,-0.234375 2.921875,-0.5 2.921875,-0.578125 c 0,-0.046875 -0.046875,-0.125 -0.109375,-0.125 -0.03125,0 -0.046875,0 -0.15625,0.09375 -0.296875,0.265625 -0.609375,0.5 -0.921875,0.5 C 1.25,-0.109375 1.25,-0.921875 1.25,-1.0625 c 0,-0.09375 0,-0.09375 0.015625,-0.234375 0.015625,-0.0625 0.015625,-0.078125 0.09375,-0.15625 0.375,-0.359375 1.703125,-1.640625 1.703125,-2.84375 0,-0.109375 0,-0.609375 -0.46875,-0.609375 C 2.015625,-4.90625 1.546875,-4 1.4375,-3.796875 1.140625,-3.203125 0.96875,-2.640625 0.90625,-2.28125 0.796875,-1.8125 0.796875,-1.578125 0.796875,-1.234375 0.75,-1.1875 0.34375,-0.828125 0.28125,-0.78125 c -0.109375,0.109375 -0.125,0.109375 -0.125,0.15625 0,0.046875 0.0625,0.125 0.125,0.125 0.046875,0 0.234375,-0.171875 0.28125,-0.21875 z m 0.5,-0.796875 C 1.453125,-2.453125 2,-4.703125 2.59375,-4.703125 c 0.15625,0 0.25,0.109375 0.25,0.359375 0,0.078125 0,0.703125 -0.609375,1.5625 C 1.875,-2.28125 1.5,-1.90625 1.328125,-1.75 Z m 0,0"
           id="path6-1" />
      </g>
      <g
         id="glyph-4-0">
        <path
           d="M 2.9375,-0.96875 H 2.71875 c 0,0.09375 -0.0625,0.40625 -0.140625,0.453125 -0.03125,0.03125 -0.453125,0.03125 -0.53125,0.03125 H 1.078125 C 1.40625,-0.71875 1.765625,-1 2.0625,-1.203125 c 0.453125,-0.3125 0.875,-0.59375 0.875,-1.125 0,-0.640625 -0.609375,-0.984375 -1.3125,-0.984375 -0.671875,0 -1.171875,0.375 -1.171875,0.875 0,0.25 0.21875,0.296875 0.296875,0.296875 0.125,0 0.28125,-0.09375 0.28125,-0.296875 0,-0.171875 -0.125,-0.28125 -0.28125,-0.28125 0.140625,-0.234375 0.4375,-0.375 0.765625,-0.375 0.484375,0 0.890625,0.28125 0.890625,0.765625 0,0.421875 -0.296875,0.75 -0.671875,1.0625 l -1.21875,1.03125 C 0.46875,-0.1875 0.453125,-0.1875 0.453125,-0.15625 V 0 h 2.3125 z m 0,0"
           id="path7" />
      </g>
      <g
         id="glyph-4-1">
        <path
           d="M 1.984375,-3.171875 C 1.984375,-3.3125 1.96875,-3.3125 1.796875,-3.3125 1.453125,-3 0.890625,-3 0.796875,-3 H 0.71875 v 0.21875 h 0.078125 c 0.109375,0 0.4375,-0.015625 0.734375,-0.140625 v 2.5 c 0,0.140625 0,0.203125 -0.53125,0.203125 H 0.75 V 0 c 0.265625,-0.015625 0.71875,-0.015625 1,-0.015625 0.296875,0 0.734375,0 1.015625,0.015625 v -0.21875 h -0.25 c -0.53125,0 -0.53125,-0.0625 -0.53125,-0.203125 z m 0,0"
           id="path8" />
      </g>
    </g>
  </defs>
  <g
     inkscape:label="Layer 1"
     inkscape:groupmode="layer"
     id="layer1"
     transform="translate(-57.058924,-103.36242)">
    <path
       style="font-variation-settings:'opsz' 72;fill:none;stroke:#b3b3b3;stroke-width:1;stroke-linejoin:round;stroke-dasharray:none;marker-start:url(#Triangle)"
       d="m 108.27717,108.69954 v 97.09892"
       id="path1"
       sodipodi:nodetypes="cc" />
    <path
       style="font-variation-settings:'opsz' 72;fill:none;stroke:#b3b3b3;stroke-width:1;stroke-linejoin:round;stroke-dasharray:none;marker-end:url(#marker3)"
       d="M 57.058924,157.249 H 159.49542"
       id="path2" />
    <circle
       style="font-variation-settings:'opsz' 72;fill:none;stroke:#1a1a1a;stroke-width:1;stroke-linejoin:round;stroke-dasharray:none"
       id="path4"
       cx="108.27717"
       cy="157.31335"
       r="28.096788" />
    <path
       style="font-variation-settings:'opsz' 72;fill:none;stroke:#1a1a1a;stroke-width:1;stroke-linejoin:round;stroke-dasharray:none"
       d="m 108.27717,129.21656 -28.09679,28.09679 28.09679,28.09679 28.09679,-28.09679 z"
       id="path5" />
    <ellipse
       style="font-variation-settings:'opsz' 72;fill:none;stroke:#1a1a1a;stroke-width:1;stroke-linejoin:round;stroke-dasharray:none"
       id="path6"
       cx="187.80084"
       cy="34.673809"
       transform="rotate(45)"
       rx="19.867414"
       ry="19.867424" />
    <text
       xml:space="preserve"
       style="font-style:normal;font-variant:normal;font-weight:normal;font-stretch:normal;font-size:10.5833px;font-family:Newsreader;-inkscape-font-specification:'Newsreader, @opsz=72';font-variant-ligatures:normal;font-variant-caps:normal;font-variant-numeric:normal;font-variant-east-asian:normal;font-variation-settings:'opsz' 72;text-align:start;writing-mode:lr-tb;direction:ltr;text-anchor:start;fill:#1a1a1a;fill-opacity:1;stroke:none;stroke-width:1.87963;stroke-linejoin:round;stroke-dasharray:none;stroke-opacity:1"
       x="96.849426"
       y="194.61618"
       id="text6"><tspan
         sodipodi:role="line"
         id="tspan6"
         style="font-style:normal;font-variant:normal;font-weight:normal;font-stretch:normal;font-size:10.5833px;font-family:Newsreader;-inkscape-font-specification:'Newsreader, @opsz=72';font-variant-ligatures:normal;font-variant-caps:normal;font-variant-numeric:normal;font-variant-east-asian:normal;font-variation-settings:'opsz' 72;fill:#1a1a1a;fill-opacity:1;stroke:none;stroke-width:1.87963;stroke-opacity:1"
         x="96.849426"
         y="194.61618">-1</tspan></text>
    <text
       xml:space="preserve"
       style="font-style:normal;font-variant:normal;font-weight:normal;font-stretch:normal;font-size:10.5833px;font-family:Newsreader;-inkscape-font-specification:'Newsreader, @opsz=72';font-variant-ligatures:normal;font-variant-caps:normal;font-variant-numeric:normal;font-variant-east-asian:normal;font-variation-settings:'opsz' 72;text-align:start;writing-mode:lr-tb;direction:ltr;text-anchor:start;fill:#1a1a1a;fill-opacity:1;stroke:none;stroke-width:1.87963;stroke-linejoin:round;stroke-dasharray:none;stroke-opacity:1"
       x="68.099312"
       y="167.21193"
       id="text6-5"><tspan
         sodipodi:role="line"
         id="tspan6-3"
         style="font-style:normal;font-variant:normal;font-weight:normal;font-stretch:normal;font-size:10.5833px;font-family:Newsreader;-inkscape-font-specification:'Newsreader, @opsz=72';font-variant-ligatures:normal;font-variant-caps:normal;font-variant-numeric:normal;font-variant-east-asian:normal;font-variation-settings:'opsz' 72;fill:#1a1a1a;fill-opacity:1;stroke:none;stroke-width:1.87963;stroke-opacity:1"
         x="68.099312"
         y="167.21193">-1</tspan></text>
    <text
       xml:space="preserve"
       style="font-style:normal;font-variant:normal;font-weight:normal;font-stretch:normal;font-size:10.5833px;font-family:Newsreader;-inkscape-font-specification:'Newsreader, @opsz=72';font-variant-ligatures:normal;font-variant-caps:normal;font-variant-numeric:normal;font-variant-east-asian:normal;font-variation-settings:'opsz' 72;text-align:start;writing-mode:lr-tb;direction:ltr;text-anchor:start;fill:#1a1a1a;fill-opacity:1;stroke:none;stroke-width:1.87963;stroke-linejoin:round;stroke-dasharray:none;stroke-opacity:1"
       x="99.9468"
       y="127.45447"
       id="text6-55"><tspan
         sodipodi:role="line"
         id="tspan6-4"
         style="font-style:normal;font-variant:normal;font-weight:normal;font-stretch:normal;font-size:10.5833px;font-family:Newsreader;-inkscape-font-specification:'Newsreader, @opsz=72';font-variant-ligatures:normal;font-variant-caps:normal;font-variant-numeric:normal;font-variant-east-asian:normal;font-variation-settings:'opsz' 72;fill:#1a1a1a;fill-opacity:1;stroke:none;stroke-width:1.87963;stroke-opacity:1"
         x="99.9468"
         y="127.45447">1</tspan></text>
    <text
       xml:space="preserve"
       style="font-style:normal;font-variant:normal;font-weight:normal;font-stretch:normal;font-size:10.5833px;font-family:Newsreader;-inkscape-font-specification:'Newsreader, @opsz=72';font-variant-ligatures:normal;font-variant-caps:normal;font-variant-numeric:normal;font-variant-east-asian:normal;font-variation-settings:'opsz' 72;text-align:start;writing-mode:lr-tb;direction:ltr;text-anchor:start;fill:#1a1a1a;fill-opacity:1;stroke:none;stroke-width:1.87963;stroke-linejoin:round;stroke-dasharray:none;stroke-opacity:1"
       x="138.85286"
       y="155.08313"
       id="text6-55-9"><tspan
         sodipodi:role="line"
         id="tspan6-4-7"
         style="font-style:normal;font-variant:normal;font-weight:normal;font-stretch:normal;font-size:10.5833px;font-family:Newsreader;-inkscape-font-specification:'Newsreader, @opsz=72';font-variant-ligatures:normal;font-variant-caps:normal;font-variant-numeric:normal;font-variant-east-asian:normal;font-variation-settings:'opsz' 72;fill:#1a1a1a;fill-opacity:1;stroke:none;stroke-width:1.87963;stroke-opacity:1"
         x="138.85286"
         y="155.08313">1</tspan></text>
    <text
       xml:space="preserve"
       style="font-style:normal;font-variant:normal;font-weight:normal;font-stretch:normal;font-size:10.5833px;font-family:Newsreader;-inkscape-font-specification:'Newsreader, @opsz=72';font-variant-ligatures:normal;font-variant-caps:normal;font-variant-numeric:normal;font-variant-east-asian:normal;font-variation-settings:'opsz' 72;text-align:start;writing-mode:lr-tb;direction:ltr;text-anchor:start;fill:#000000;stroke:#0184bc;stroke-width:1;stroke-linejoin:round;stroke-dasharray:1, 1"
       x="78.849342"
       y="115.48858"
       id="text1"><tspan
         sodipodi:role="line"
         id="tspan1"
         style="stroke-width:1"
         x="78.849342"
         y="115.48858" /></text>
    <g
       id="g1"
       transform="matrix(3.9997351,0,0,3.9997351,-190.27885,-431.06051)">
      <use
         xlink:href="#glyph-0-0"
         x="7.3390002"
         y="8.4130001"
         id="use8"
         transform="matrix(0.26458333,0,0,0.26458333,82.500391,133.14564)"
         style="fill:#000000;fill-opacity:1" />
      <path
         fill="none"
         stroke-width="0.105304"
         stroke-linecap="butt"
         stroke-linejoin="miter"
         stroke="#000000"
         stroke-opacity="1"
         stroke-miterlimit="10"
         d="m 83.34375,136.49531 h 3.515031"
         id="path9" />
      <use
         xlink:href="#glyph-1-0"
         x="3.188"
         y="14.853"
         id="use9"
         transform="matrix(0.26458333,0,0,0.26458333,82.500391,133.14564)"
         style="fill:#000000;fill-opacity:1" />
      <path
         fill="none"
         stroke-width="0.105304"
         stroke-linecap="butt"
         stroke-linejoin="miter"
         stroke="#000000"
         stroke-opacity="1"
         stroke-miterlimit="10"
         d="m 85.539998,137.02241 h 1.318783"
         id="path10" />
      <use
         xlink:href="#glyph-0-1"
         x="11.49"
         y="23.094999"
         id="use10"
         transform="matrix(0.26458333,0,0,0.26458333,82.500391,133.14564)"
         style="fill:#000000;fill-opacity:1" />
      <use
         xlink:href="#glyph-2-0"
         x="17.667"
         y="15.152"
         id="use11"
         transform="matrix(0.26458333,0,0,0.26458333,82.500391,133.14564)"
         style="fill:#000000;fill-opacity:1" />
      <use
         xlink:href="#glyph-3-0"
         x="25.224001"
         y="17.333"
         id="use12"
         transform="matrix(0.26458333,0,0,0.26458333,82.500391,133.14564)"
         style="fill:#000000;fill-opacity:1" />
      <use
         xlink:href="#glyph-4-0"
         x="28.559"
         y="14.931"
         id="use13"
         transform="matrix(0.26458333,0,0,0.26458333,82.500391,133.14564)"
         style="fill:#000000;fill-opacity:1" />
      <use
         xlink:href="#glyph-4-0"
         x="28.559"
         y="19.496"
         id="use14"
         transform="matrix(0.26458333,0,0,0.26458333,82.500391,133.14564)"
         style="fill:#000000;fill-opacity:1" />
      <use
         xlink:href="#glyph-1-1"
         x="35.712002"
         y="15.152"
         id="use15"
         transform="matrix(0.26458333,0,0,0.26458333,82.500391,133.14564)"
         style="fill:#000000;fill-opacity:1" />
      <use
         xlink:href="#glyph-2-0"
         x="46.230515"
         y="15.152"
         id="use16"
         transform="matrix(0.26458333,0,0,0.26458333,82.500391,133.14564)"
         style="fill:#000000;fill-opacity:1" />
      <use
         xlink:href="#glyph-3-0"
         x="53.785"
         y="17.333"
         id="use17"
         transform="matrix(0.26458333,0,0,0.26458333,82.500391,133.14564)"
         style="fill:#000000;fill-opacity:1" />
      <use
         xlink:href="#glyph-4-0"
         x="57.119999"
         y="14.931"
         id="use18"
         transform="matrix(0.26458333,0,0,0.26458333,82.500391,133.14564)"
         style="fill:#000000;fill-opacity:1" />
      <use
         xlink:href="#glyph-4-1"
         x="57.119999"
         y="19.496"
         id="use19"
         transform="matrix(0.26458333,0,0,0.26458333,82.500391,133.14564)"
         style="fill:#000000;fill-opacity:1" />
      <use
         xlink:href="#glyph-1-1"
         x="64.274002"
         y="15.152"
         id="use20"
         transform="matrix(0.26458333,0,0,0.26458333,82.500391,133.14564)"
         style="fill:#000000;fill-opacity:1" />
      <use
         xlink:href="#glyph-2-0"
         x="74.792511"
         y="15.152"
         id="use21"
         transform="matrix(0.26458333,0,0,0.26458333,82.500391,133.14564)"
         style="fill:#000000;fill-opacity:1" />
      <use
         xlink:href="#glyph-3-0"
         x="82.346001"
         y="17.333"
         id="use22"
         transform="matrix(0.26458333,0,0,0.26458333,82.500391,133.14564)"
         style="fill:#000000;fill-opacity:1" />
      <use
         xlink:href="#glyph-4-0"
         x="85.681"
         y="14.931"
         id="use23"
         transform="matrix(0.26458333,0,0,0.26458333,82.500391,133.14564)"
         style="fill:#000000;fill-opacity:1" />
      <use
         xlink:href="#glyph-4-0"
         x="85.681"
         y="19.496"
         id="use24"
         transform="matrix(0.26458333,0,0,0.26458333,82.500391,133.14564)"
         style="fill:#000000;fill-opacity:1" />
    </g>
  </g>
</svg>
