<?xml version="1.0" encoding="UTF-8" standalone="no"?>
<!-- Created with Inkscape (http://www.inkscape.org/) -->

<svg
   width="176.46779mm"
   height="178.6144mm"
   viewBox="0 0 176.46779 178.61439"
   version="1.1"
   id="svg1"
   inkscape:version="1.4.2 (ebf0e940, 2025-05-08)"
   sodipodi:docname="sin(npix).svg"
   xmlns:inkscape="http://www.inkscape.org/namespaces/inkscape"
   xmlns:sodipodi="http://sodipodi.sourceforge.net/DTD/sodipodi-0.dtd"
   xmlns="http://www.w3.org/2000/svg"
   xmlns:svg="http://www.w3.org/2000/svg">
  <sodipodi:namedview
     id="namedview1"
     pagecolor="#ffffff"
     bordercolor="#000000"
     borderopacity="0.25"
     inkscape:showpageshadow="2"
     inkscape:pageopacity="0.0"
     inkscape:pagecheckerboard="0"
     inkscape:deskcolor="#d1d1d1"
     inkscape:document-units="mm"
     inkscape:zoom="0.76466019"
     inkscape:cx="366.82961"
     inkscape:cy="187.66506"
     inkscape:window-width="1696"
     inkscape:window-height="1026"
     inkscape:window-x="10"
     inkscape:window-y="48"
     inkscape:window-maximized="0"
     inkscape:current-layer="layer1" />
  <defs
     id="defs1">
    <marker
       style="overflow:visible"
       id="marker19"
       refX="0"
       refY="0"
       orient="auto-start-reverse"
       inkscape:stockid="Triangle arrow"
       markerWidth="1"
       markerHeight="1"
       viewBox="0 0 1 1"
       inkscape:isstock="true"
       inkscape:collect="always"
       preserveAspectRatio="xMidYMid">
      <path
         transform="scale(0.5)"
         style="fill:context-stroke;fill-rule:evenodd;stroke:context-stroke;stroke-width:1pt"
         d="M 5.77,0 -2.88,5 V -5 Z"
         id="path19" />
    </marker>
    <marker
       style="overflow:visible"
       id="Triangle"
       refX="0"
       refY="0"
       orient="auto-start-reverse"
       inkscape:stockid="Triangle arrow"
       markerWidth="1"
       markerHeight="1"
       viewBox="0 0 1 1"
       inkscape:isstock="true"
       inkscape:collect="always"
       preserveAspectRatio="xMidYMid">
      <path
         transform="scale(0.5)"
         style="fill:context-stroke;fill-rule:evenodd;stroke:context-stroke;stroke-width:1pt"
         d="M 5.77,0 -2.88,5 V -5 Z"
         id="path135" />
    </marker>
    <clipPath
       id="clipPath1836">
      <rect
         style="font-variation-settings:'opsz' 72, 'wght' 500;fill:#000000;stroke:#0184bc;stroke-width:1;stroke-linejoin:round;stroke-dasharray:1, 1"
         width="123.3986"
         height="88.474464"
         x="34.148041"
         y="61.311253"
         id="rect1" />
    </clipPath>
    <clipPath
       id="clipPath9170">
      <rect
         style="font-variation-settings:'opsz' 72, 'wght' 500;fill:none;stroke:none;stroke-width:1;stroke-linejoin:round;stroke-dasharray:1, 1"
         width="123.3986"
         height="88.474464"
         x="34.148041"
         y="61.311253"
         id="rect2" />
    </clipPath>
  </defs>
  <g
     inkscape:label="Layer 1"
     inkscape:groupmode="layer"
     id="layer1"
     transform="translate(-33.532214,-80.145282)">
    <path
       style="font-variation-settings:'opsz' 72, 'wght' 500;fill:none;stroke:#b3b3b3;stroke-width:1;stroke-linejoin:round;stroke-dasharray:none;marker-end:url(#marker19)"
       d="M 91.883927,237.89569 V 86.617088"
       id="path17"
       sodipodi:nodetypes="cc" />
    <path
       style="font-variation-settings:'opsz' 72, 'wght' 500;fill:none;stroke:#b3b3b3;stroke-width:1;stroke-linejoin:round;stroke-dasharray:none;marker-end:url(#Triangle)"
       d="M 70.816701,186.01418 H 190.82258"
       id="path18"
       sodipodi:nodetypes="cc" />
    <path
       style="font-variation-settings:'opsz' 72, 'wght' 500;display:inline;fill:none;stroke:#0184bc;stroke-width:1.5;stroke-linejoin:round;stroke-dasharray:none;stroke-opacity:1"
       d="m 34.2509,185.933 v 0 c 0.1204,-0.12 0.2408,-5.547 0.3612,-5.668 0.1204,-0.12 0.2408,-5.512 0.3612,-5.632 0.1204,-0.121 0.2408,-5.443 0.3612,-5.563 0.1204,-0.121 0.2408,-5.338 0.3612,-5.459 0.1204,-0.12 0.2408,-5.199 0.3612,-5.32 0.1204,-0.12 0.2408,-5.028 0.3612,-5.148 0.1204,-0.121 0.2408,-4.825 0.3612,-4.946 0.1204,-0.12 0.2408,-4.591 0.3612,-4.711 0.1204,-0.121 0.2408,-4.329 0.3612,-4.449 0.1204,-0.12 0.2408,-4.038 0.3612,-4.158 0.1204,-0.12 0.2408,-3.722 0.3612,-3.842 0.1204,-0.12 0.2408,-3.381 0.3612,-3.502 0.1204,-0.12 0.2408,-3.019 0.3612,-3.139 0.1204,-0.121 0.2408,-2.639 0.3612,-2.759 0.1204,-0.12 0.2408,-2.24 0.3612,-2.36 0.1204,-0.12 0.2408,-1.827 0.3612,-1.947 0.1204,-0.12 0.2408,-1.402 0.3612,-1.522 0.1204,-0.12 0.2408,-0.967 0.3612,-1.087 0.1204,-0.12 0.2408,-0.527 0.3612,-0.647 0.1204,-0.119 0.2408,-0.081 0.3612,-0.2 0.1204,-0.12 0.2409,0.365 0.3613,0.245 0.1204,-0.12 0.2408,0.81 0.3612,0.691 0.1204,-0.12 0.2408,1.251 0.3612,1.131 0.1204,-0.12 0.2408,1.684 0.3612,1.565 0.1204,-0.12 0.2408,2.108 0.3612,1.989 0.1204,-0.12 0.2408,2.52 0.3612,2.4 0.1204,-0.119 0.2408,2.917 0.3612,2.798 0.1204,-0.12 0.2408,3.296 0.3612,3.177 0.1204,-0.12 0.2408,3.655 0.3612,3.536 0.1204,-0.119 0.2408,3.994 0.3612,3.875 0.1204,-0.119 0.2408,4.307 0.3612,4.188 0.1204,-0.119 0.2408,4.595 0.3612,4.476 0.1204,-0.119 0.2408,4.856 0.3612,4.737 0.1204,-0.119 0.2408,5.086 0.3612,4.967 0.1204,-0.119 0.2408,5.286 0.3612,5.167 0.1204,-0.118 0.2408,5.454 0.3612,5.336 0.1204,-0.119 0.2408,5.588 0.3612,5.47 0.1204,-0.118 0.2408,5.689 0.3612,5.571 0.1204,-0.118 0.2408,5.756 0.3612,5.638 0.1204,-0.118 0.2408,5.788 0.3612,5.67 0.1204,-0.118 0.2408,5.783 0.3612,5.666 0.1204,-0.118 0.2408,5.745 0.3612,5.627 0.1204,-0.118 0.2408,5.671 0.3612,5.554 0.1204,-0.118 0.2408,5.563 0.3613,5.446 0.1204,-0.118 0.2408,5.421 0.3612,5.304 0.1204,-0.117 0.2408,5.247 0.3612,5.13 0.1204,-0.117 0.2408,5.041 0.3612,4.923 0.1204,-0.117 0.2408,4.804 0.3612,4.687 0.1204,-0.117 0.2408,4.538 0.3612,4.421 0.1204,-0.117 0.2408,4.244 0.3612,4.128 0.1204,-0.117 0.2408,3.925 0.3612,3.808 0.1204,-0.116 0.2408,3.583 0.3612,3.467 0.1204,-0.117 0.2408,3.218 0.3612,3.102 0.1204,-0.116 0.2408,2.836 0.3612,2.72 0.1204,-0.117 0.2408,2.435 0.3612,2.319 0.1204,-0.116 0.2408,2.021 0.3612,1.905 0.1204,-0.116 0.2408,1.594 0.3612,1.479 0.1204,-0.116 0.2408,1.159 0.3612,1.043 0.1204,-0.115 0.2408,0.717 0.3612,0.602 0.1204,-0.115 0.2408,0.271 0.3612,0.156 0.1204,-0.115 0.2408,-0.175 0.3612,-0.29 0.1204,-0.115 0.2408,-0.62 0.3612,-0.735 0.1204,-0.114 0.2408,-1.06 0.3612,-1.175 0.1204,-0.114 0.2408,-1.493 0.3612,-1.607 0.1204,-0.115 0.2408,-1.917 0.3612,-2.031 0.1204,-0.114 0.2408,-2.327 0.3612,-2.441 0.1204,-0.114 0.2408,-2.722 0.3612,-2.836 0.1205,-0.114 0.2409,-3.1 0.3613,-3.214 0.1204,-0.113 0.2408,-3.458 0.3612,-3.571 0.1204,-0.114 0.2408,-3.794 0.3612,-3.907 0.1204,-0.113 0.2408,-4.106 0.3612,-4.219 0.1204,-0.113 0.2408,-4.391 0.3612,-4.503 0.1204,-0.113 0.2408,-4.649 0.3612,-4.761 0.1204,-0.113 0.2408,-4.877 0.3612,-4.989 0.1204,-0.112 0.2408,-5.073 0.3612,-5.185 0.1204,-0.112 0.2408,-5.239 0.3612,-5.351 0.1204,-0.111 0.2408,-5.37 0.3612,-5.482 0.1204,-0.111 0.2408,-5.468 0.3612,-5.579 0.1204,-0.111 0.2408,-5.532 0.3612,-5.643 0.1204,-0.111 0.2408,-5.56 0.3612,-5.67 0.1204,-0.111 0.2408,-5.554 0.3612,-5.664 0.1204,-0.111 0.2408,-5.511 0.3612,-5.622 0.1204,-0.11 0.2408,-5.434 0.3612,-5.544 0.1204,-0.11 0.2408,-5.324 0.3612,-5.434 0.1204,-0.11 0.2408,-5.178 0.3612,-5.288 0.1204,-0.11 0.2408,-5.001 0.3612,-5.111 0.1204,-0.109 0.2408,-4.792 0.3612,-4.901 0.1204,-0.109 0.2408,-4.552 0.3612,-4.661 0.1204,-0.109 0.2408,-4.284 0.3612,-4.393 0.1204,-0.108 0.2408,-3.988 0.3612,-4.097 0.1204,-0.108 0.2409,-3.667 0.3613,-3.775 0.1204,-0.108 0.2408,-3.323 0.3612,-3.431 0.1204,-0.108 0.2408,-2.958 0.3612,-3.065 0.1204,-0.108 0.2408,-2.573 0.3612,-2.68 0.1204,-0.107 0.2408,-2.172 0.3612,-2.279 0.1204,-0.107 0.2408,-1.756 0.3612,-1.863 0.1204,-0.106 0.2408,-1.329 0.3612,-1.435 0.1204,-0.107 0.2408,-0.894 0.3612,-1 0.1204,-0.106 0.2408,-0.452 0.3612,-0.557 0.1204,-0.106 0.2408,-0.006 0.3612,-0.112 0.1204,-0.106 0.2408,0.44 0.3612,0.335 0.1204,-0.106 0.2408,0.884 0.3612,0.779 0.1204,-0.105 0.2408,1.323 0.3612,1.218 0.1204,-0.104 0.2408,1.755 0.3612,1.651 0.1204,-0.104 0.2408,2.176 0.3612,2.072 0.1204,-0.104 0.2408,2.585 0.3612,2.482 0.1204,-0.104 0.2408,2.978 0.3612,2.874 0.1204,-0.103 0.2408,3.354 0.3612,3.251 0.1204,-0.103 0.2408,3.709 0.3612,3.606 0.1204,-0.103 0.2408,4.042 0.3612,3.939 0.1204,-0.102 0.2408,4.35 0.3612,4.248 0.1204,-0.102 0.2408,4.633 0.3612,4.531 0.1204,-0.102 0.2408,4.886 0.3612,4.785 0.1204,-0.102 0.2408,5.111 0.3613,5.009 0.1204,-0.101 0.2408,5.305 0.3612,5.204 0.1204,-0.101 0.2408,5.466 0.3612,5.365 0.1204,-0.101 0.2408,5.593 0.3612,5.493 0.1204,-0.1 0.2408,5.688 0.3612,5.588 0.1204,-0.1 0.2408,5.746 0.3612,5.647 0.1204,-0.1 0.2408,5.77 0.3612,5.671 0.1204,-0.099 0.2408,5.76 0.3612,5.661 0.1204,-0.099 0.2408,5.714 0.3612,5.616 0.1204,-0.099 0.2408,5.633 0.3612,5.535 0.1204,-0.098 0.2408,5.518 0.3612,5.42 0.1204,-0.098 0.2408,5.37 0.3612,5.272 0.1204,-0.097 0.2408,5.188 0.3612,5.091 0.1204,-0.097 0.2408,4.975 0.3612,4.879 0.1204,-0.097 0.2408,4.732 0.3612,4.635 0.1204,-0.096 0.2408,4.461 0.3612,4.365 0.1204,-0.096 0.2408,4.161 0.3612,4.066 0.1204,-0.096 0.2408,3.837 0.3612,3.742 0.1204,-0.096 0.2408,3.49 0.3612,3.395 0.1204,-0.095 0.2408,3.122 0.3612,3.027 0.1204,-0.094 0.2408,2.735 0.3612,2.641 0.1204,-0.094 0.2408,2.331 0.3612,2.237 0.1204,-0.093 0.2408,1.915 0.3612,1.821 0.1204,-0.093 0.2408,1.486 0.3612,1.393 0.1205,-0.094 0.2409,1.048 0.3613,0.955 0.1204,-0.092 0.2408,0.605 0.3612,0.513 0.1204,-0.092 0.2408,0.159 0.3612,0.067 0.1204,-0.092 0.2408,-0.288 0.3612,-0.379 0.1204,-0.092 0.2408,-0.732 0.3612,-0.824 0.1204,-0.091 0.2408,-1.171 0.3612,-1.262 0.1204,-0.091 0.2408,-1.603 0.3612,-1.693 0.1204,-0.09 0.2408,-2.024 0.3612,-2.114 0.1204,-0.09 0.2408,-2.432 0.3612,-2.521 0.1204,-0.09 0.2408,-2.824 0.3612,-2.913 0.1204,-0.089 0.2408,-3.199 0.3612,-3.287 0.1204,-0.089 0.2408,-3.552 0.3612,-3.641 0.1204,-0.088 0.2408,-3.883 0.3612,-3.971 0.1204,-0.088 0.2408,-4.19 0.3612,-4.277 0.1204,-0.088 0.2408,-4.471 0.3612,-4.558 0.1204,-0.087 0.2408,-4.722 0.3612,-4.809 0.1204,-0.086 0.2408,-4.944 0.3612,-5.03 0.1204,-0.086 0.2408,-5.135 0.3612,-5.221 0.1204,-0.086 0.2408,-5.294 0.3612,-5.38 0.1204,-0.085 0.2408,-5.419 0.3612,-5.504 0.1204,-0.085 0.2408,-5.51 0.3612,-5.595 0.1204,-0.084 0.2408,-5.567 0.3612,-5.651 0.1204,-0.084 0.2408,-5.588 0.3612,-5.672 0.1204,-0.084 0.2409,-5.575 0.3613,-5.658 0.1204,-0.083 0.2408,-5.526 0.3612,-5.609 0.1204,-0.083 0.2408,-5.443 0.3612,-5.525 0.1204,-0.082 0.2408,-5.325 0.3612,-5.407 0.1204,-0.082 0.2408,-5.174 0.3612,-5.255 0.1204,-0.082 0.2408,-4.99 0.3612,-5.072 0.1204,-0.081 0.2408,-4.775 0.3612,-4.855 0.1204,-0.081 0.2408,-4.53 0.3612,-4.61 0.1204,-0.08 0.2408,-4.256 0.3612,-4.336 0.1204,-0.079 0.2408,-3.955 0.3612,-4.034 0.1204,-0.08 0.2408,-3.63 0.3612,-3.709 0.1204,-0.079 0.2408,-3.281 0.3612,-3.359 0.1204,-0.078 0.2408,-2.912 0.3612,-2.99 0.1204,-0.077 0.2408,-2.523 0.3612,-2.601 0.1204,-0.077 0.2408,-2.119 0.3612,-2.196 0.1204,-0.077 0.2408,-1.702 0.3612,-1.778 0.1204,-0.077 0.2408,-1.273 0.3612,-1.349 0.1204,-0.076 0.2408,-0.836 0.3612,-0.912 0.1204,-0.076 0.2408,-0.393 0.3612,-0.468 0.1204,-0.076 0.2408,0.052 0.3612,-0.023 0.1204,-0.074 0.2408,0.498 0.3612,0.424 0.1204,-0.074 0.2408,0.941 0.3612,0.868 0.12,-0.074 0.241,1.379 0.361,1.305 0.121,-0.073 0.241,1.809 0.361,1.736 0.121,-0.073 0.241,2.228 0.362,2.155 0.12,-0.072 0.24,2.633 0.361,2.562 0.12,-0.072 0.241,3.022 0.361,2.951 0.12,-0.071 0.241,3.394 0.361,3.323 0.121,-0.071 0.241,3.745 0.361,3.675 0.121,-0.07 0.241,4.073 0.362,4.003 0.12,-0.07 0.24,4.376 0.361,4.307 0.12,-0.07 0.241,4.652 0.361,4.583 0.12,-0.069 0.241,4.901 0.361,4.833 0.121,-0.069 0.241,5.119 0.361,5.051 0.121,-0.068 0.241,5.305 0.362,5.238 0.12,-0.067 0.241,5.46 0.361,5.393 0.12,-0.066 0.241,5.582 0.361,5.515 0.121,-0.066 0.241,5.668 0.361,5.602 0.121,-0.065 0.241,5.72 0.362,5.655 0.12,-0.065 0.24,5.737 0.361,5.672 0.12,-0.064 0.241,5.719 0.361,5.655 0.12,-0.064 0.241,5.666 0.361,5.602 0.121,-0.063 0.241,5.578 0.361,5.515 0.121,-0.063 0.241,5.456 0.362,5.393 0.12,-0.062 0.24,5.301 0.361,5.239 0.12,-0.062 0.241,5.113 0.361,5.051 0.12,-0.062 0.241,4.893 0.361,4.832 0.121,-0.061 0.241,4.645 0.361,4.584 0.121,-0.061 0.241,4.367 0.362,4.307 0.12,-0.06 0.24,4.062 0.361,4.003 0.12,-0.06 0.241,3.733 0.361,3.674 0.12,-0.059 0.241,3.382 0.361,3.323 0.121,-0.058 0.241,3.01 0.361,2.952 0.121,-0.058 0.241,2.619 0.362,2.561 0.12,-0.057 0.24,2.212 0.361,2.155 0.12,-0.057 0.241,1.793 0.361,1.736 0.12,-0.056 0.241,1.362 0.361,1.306 0.121,-0.056 0.241,0.923 0.361,0.867 0.121,-0.055 0.241,0.479 0.362,0.424 0.12,-0.055 0.24,0.032 0.361,-0.022 0.12,-0.054 0.241,-0.415 0.361,-0.468 0.12,-0.054 0.241,-0.859 0.361,-0.912 0.121,-0.053 0.241,-1.297 0.361,-1.349 0.121,-0.053 0.241,-1.726 0.362,-1.779 0.12,-0.052 0.24,-2.144 0.361,-2.196 0.12,-0.052 0.241,-2.55 0.361,-2.601 0.12,-0.051 0.241,-2.939 0.361,-2.989 0.121,-0.051 0.241,-3.31 0.361,-3.36 0.121,-0.05 0.241,-3.659 0.362,-3.708 0.12,-0.05 0.24,-3.986 0.361,-4.035 0.12,-0.049 0.241,-4.287 0.361,-4.335 0.12,-0.049 0.241,-4.563 0.361,-4.61 0.121,-0.048 0.241,-4.809 0.361,-4.856 0.121,-0.047 0.241,-5.024 0.362,-5.071 0.12,-0.047 0.24,-5.209 0.361,-5.255 0.12,-0.047 0.241,-5.362 0.361,-5.407 0.12,-0.046 0.241,-5.481 0.361,-5.526 0.121,-0.045 0.241,-5.564 0.361,-5.609 0.121,-0.044 0.241,-5.614 0.362,-5.658 0.12,-0.043 0.24,-5.628 0.361,-5.672 0.12,-0.043 0.241,-5.608 0.361,-5.651 0.12,-0.043 0.241,-5.553 0.361,-5.595 0.121,-0.042 0.241,-5.462 0.362,-5.504 0.12,-0.042 0.24,-5.338 0.361,-5.379 0.12,-0.041 0.241,-5.181 0.361,-5.221 0.12,-0.041 0.241,-4.991 0.361,-5.031 0.121,-0.04 0.241,-4.769 0.361,-4.809 0.121,-0.039 0.241,-4.518 0.362,-4.557 0.12,-0.039 0.24,-4.239 0.361,-4.278 0.12,-0.038 0.241,-3.933 0.361,-3.971 0.12,-0.037 0.241,-3.603 0.361,-3.64 0.121,-0.037 0.241,-3.251 0.361,-3.287 0.121,-0.037 0.241,-2.877 0.362,-2.913 0.12,-0.036 0.24,-2.486 0.361,-2.522 0.12,-0.035 0.241,-2.079 0.361,-2.113 0.12,-0.035 0.241,-1.66 0.361,-1.694 0.121,-0.034 0.241,-1.228 0.361,-1.262 0.121,-0.034 0.241,-0.79 0.362,-0.823 0.12,-0.033 0.24,-0.347 0.361,-0.38 0.12,-0.032 0.241,0.099 0.361,0.067 0.12,-0.031 0.241,0.545 0.361,0.513 0.121,-0.031 0.241,0.987 0.361,0.956 0.121,-0.031 0.241,1.422 0.362,1.392 0.12,-0.03 0.24,1.851 0.361,1.821 0.12,-0.029 0.241,2.267 0.361,2.238 0.12,-0.029 0.241,2.669 0.361,2.64 0.121,-0.028 0.241,3.055 0.361,3.028 0.121,-0.028 0.241,3.422 0.362,3.395 0.12,-0.027 0.24,3.768 0.361,3.742 0.12,-0.027 0.241,4.092 0.361,4.066 0.12,-0.026 0.241,4.389 0.361,4.364 0.121,-0.025 0.241,4.661 0.361,4.636 0.121,-0.025 0.241,4.903 0.362,4.878 0.12,-0.024 0.24,5.115 0.361,5.091 0.12,-0.023 0.241,5.295 0.361,5.272 0.12,-0.023 0.241,5.443 0.361,5.421 0.121,-0.023 0.241,5.557 0.361,5.535 0.121,-0.022 0.241,5.636 0.362,5.615 0.12,-0.021 0.24,5.682 0.361,5.661 0.12,-0.02 0.241,5.692 0.361,5.672 0.12,-0.02 0.241,5.666 0.361,5.647 0.121,-0.02 0.241,5.606 0.361,5.587 0.121,-0.019 0.241,5.512 0.362,5.494 0.12,-0.019 0.24,5.382 0.361,5.365 0.12,-0.018 0.241,5.22 0.361,5.203 0.12,-0.017 0.241,5.026 0.361,5.01 0.121,-0.017 0.241,4.801 0.361,4.785 0.121,-0.016 0.241,4.546 0.362,4.53 0.12,-0.015 0.24,4.263 0.361,4.248 0.12,-0.014 0.241,3.954 0.361,3.94 0.121,-0.014 0.241,3.619 0.361,3.606 0.121,-0.014 0.241,3.263 0.362,3.25 0.12,-0.013 0.24,2.887 0.361,2.875 0.12,-0.012 0.241,2.493 0.361,2.481 0.12,-0.012 0.241,2.084 0.361,2.072 0.121,-0.011 0.241,1.662 0.361,1.651 0.121,-0.01 0.241,1.229 0.362,1.219 0.12,-0.01 0.24,0.788 0.361,0.779 0.12,-0.009 0.241,0.343 0.361,0.335 0.12,-0.009 0.241,-0.104 0.361,-0.112 0.121,-0.008 0.241,-0.55 0.361,-0.557 0.121,-0.008 0.241,-0.993 0.362,-1 0.12,-0.007 0.24,-1.43 0.361,-1.436 0.12,-0.006 0.241,-1.857 0.361,-1.863 0.12,-0.005 0.241,-2.273 0.361,-2.278 0.121,-0.005 0.241,-2.676 0.361,-2.68 0.121,-0.005 0.241,-3.061 0.362,-3.065 0.12,-0.004 0.24,-3.428 0.361,-3.431 0.12,-0.003 0.241,-3.773 0.361,-3.776 0.12,-0.002 0.241,-4.095 0.361,-4.097 0.121,-0.002 0.241,-4.391 0.361,-4.392 0.121,-0.002 0.241,-4.661 0.362,-4.662 0.12,-0.001 0.24,-4.901 0.361,-4.901 0.12,0 0.241,-5.111 0.361,-5.11 0.12,0 0.241,-5.29 0.361,-5.289 0.121,0.001 0.241,-5.435 0.361,-5.433 0.121,0.001 0.241,-5.547 0.362,-5.545 0.12,0.002 0.24,-5.624 0.361,-5.621 0.12,0.002 0.241,-5.667 0.361,-5.664 0.12,0.003 0.241,-5.675 0.361,-5.671 0.121,0.004 0.241,-5.647 0.361,-5.642 0.121,0.004 0.241,-5.585 0.362,-5.58 0.12,0.005 0.24,-5.488 0.361,-5.482 0.12,0.006 0.241,-5.357 0.361,-5.35 0.12,0.006 0.241,-5.193 0.361,-5.186 0.121,0.007 0.241,-4.996 0.361,-4.988 0.121,0.007 0.241,-4.769 0.362,-4.761 0.12,0.008 0.24,-4.513 0.361,-4.504 0.12,0.009 0.241,-4.228 0.361,-4.218 0.12,0.009 0.241,-3.917 0.361,-3.907 0.121,0.01 0.241,-3.582 0.361,-3.572 0.121,0.011 0.241,-3.225 0.362,-3.213 0.12,0.011 0.24,-2.848 0.361,-2.836 0.12,0.011 0.241,-2.454 0.361,-2.441 0.12,0.012 0.241,-2.044 0.361,-2.031 0.121,0.013 0.241,-1.622 0.362,-1.608 0.12,0.014 0.24,-1.189 0.361,-1.175 0.12,0.014 0.241,-0.75 0.361,-0.735 0.12,0.015 0.241,-0.305 0.361,-0.29 0.121,0.015 0.241,0.14 0.361,0.156 0.121,0.016 0.241,0.585 0.362,0.602 0.12,0.017 0.24,1.026 0.361,1.044 0.12,0.017 0.241,1.461 0.361,1.479 0.12,0.017 0.241,1.886 0.361,1.905 0.121,0.018 0.241,2.3 0.361,2.319 0.121,0.019 0.241,2.7 0.362,2.719 0.12,0.02 0.24,3.083 0.361,3.103 0.12,0.02 0.241,3.445 0.361,3.466 0.12,0.021 0.241,3.788 0.361,3.809 0.121,0.021 0.241,4.106 0.361,4.128 0.121,0.022 0.241,4.398 0.362,4.42 0.12,0.023 0.24,4.664 0.361,4.687 0.12,0.023 0.241,4.9 0.361,4.924 0.12,0.023 0.241,5.105 0.361,5.129 0.121,0.025 0.241,5.28 0.361,5.305 0.121,0.025 0.241,5.42 0.362,5.446 0.12,0.025 0.24,5.527 0.361,5.554 0.12,0.026 0.241,5.6 0.361,5.627 0.12,0.027 0.241,5.639 0.361,5.666 0.121,0.027 0.241,5.641 0.361,5.669 0.121,0.028 0.241,5.61 0.362,5.638 0.12,0.029 0.24,5.543 0.361,5.572 0.12,0.029 0.241,5.44 0.361,5.47 0.12,0.03 0.241,5.305 0.361,5.335 0.121,0.03 0.241,5.137 0.361,5.167 0.121,0.031 0.241,4.936 0.362,4.968 0.12,0.031 0.24,4.704 0.361,4.736 0.12,0.032 0.241,4.444 0.361,4.476 0.12,0.033 0.241,4.156 0.361,4.189 0.121,0.033 0.241,3.841 0.361,3.874 0.121,0.034 0.241,3.503 0.362,3.537 0.12,0.034 0.24,3.142 0.361,3.177 0.12,0.035 0.241,2.762 0.361,2.797 0.12,0.036 0.241,2.365 0.361,2.401 0.121,0.036 0.241,1.952 0.361,1.989 0.121,0.036 0.241,1.527 0.362,1.565 0.12,0.037 0.24,1.093 0.361,1.131 0.12,0.038 0.241,0.652 0.361,0.69 0.12,0.039 0.241,0.207 0.361,0.246 0.121,0.039 0.241,-0.24 0.361,-0.201 0.121,0.039 0.241,-0.686 0.362,-0.646 0.12,0.04 0.24,-1.128 0.361,-1.088 0.12,0.041 0.241,-1.563 0.361,-1.522 0.121,0.042 0.241,-1.988 0.361,-1.947 0.121,0.042 0.241,-2.402 0.362,-2.36 0.12,0.043 0.24,-2.801 0.361,-2.758 0.12,0.043 0.241,-3.183 0.361,-3.14 0.12,0.044 0.241,-3.545 0.361,-3.501 0.121,0.043 0.241,-3.887 0.361,-3.842 0.121,0.044 0.241,-4.203 0.362,-4.158 0.12,0.045 0.24,-4.495 0.361,-4.449 0.12,0.046 0.241,-4.758 0.361,-4.712 0.12,0.046 0.241,-4.992 0.361,-4.945 0.121,0.047 0.241,-5.196 0.361,-5.149 0.121,0.047 0.241,-5.368 0.362,-5.32 0.12,0.048 0.24,-5.507 0.361,-5.458 0.12,0.048 0.241,-5.612 0.361,-5.563 0.12,0.049 0.241,-5.682 0.361,-5.633 0.121,0.05 0.241,-5.718 0.361,-5.668 v 0"
       title="sin(5*pi*x)"
       id="path15" />
    <text
       xml:space="preserve"
       style="font-style:normal;font-variant:normal;font-weight:normal;font-stretch:normal;font-size:14.1111px;font-family:Newsreader;-inkscape-font-specification:'Newsreader, @opsz=72';font-variant-ligatures:normal;font-variant-caps:normal;font-variant-numeric:normal;font-variant-east-asian:normal;font-variation-settings:'opsz' 72;text-align:start;writing-mode:lr-tb;direction:ltr;text-anchor:start;fill:#000000;fill-opacity:1;stroke:none;stroke-width:3.91548;stroke-linejoin:round;stroke-dasharray:none;stroke-opacity:1"
       x="104.8228"
       y="90.6157"
       id="text19"><tspan
         sodipodi:role="line"
         id="tspan19"
         style="font-style:normal;font-variant:normal;font-weight:normal;font-stretch:normal;font-size:14.1111px;font-family:Newsreader;-inkscape-font-specification:'Newsreader, @opsz=72';font-variant-ligatures:normal;font-variant-caps:normal;font-variant-numeric:normal;font-variant-east-asian:normal;font-variation-settings:'opsz' 72;fill:#000000;fill-opacity:1;stroke:none;stroke-width:3.91548"
         x="104.8228"
         y="90.6157">oscillates rapidly</tspan></text>
    <path
       style="font-variation-settings:'opsz' 72, 'wght' 500;fill:none;fill-opacity:1;stroke:#000000;stroke-width:2;stroke-linejoin:round;stroke-dasharray:none;stroke-opacity:1;marker-end:url(#Triangle)"
       d="m 189.69598,94.807909 c 0,0 25.2897,11.418471 17.99274,26.643101 -7.29695,15.22462 -26.29708,12.80253 -26.29708,12.80253"
       id="path20" />
  </g>
</svg>
