<?xml version="1.0" encoding="UTF-8" standalone="no"?>
<!-- Created with Inkscape (http://www.inkscape.org/) -->

<svg
   width="200mm"
   height="100mm"
   viewBox="0 0 200 100"
   version="1.1"
   id="svg1"
   inkscape:version="1.4.2 (ebf0e940, 2025-05-08)"
   sodipodi:docname="thumbnail.svg"
   xmlns:inkscape="http://www.inkscape.org/namespaces/inkscape"
   xmlns:sodipodi="http://sodipodi.sourceforge.net/DTD/sodipodi-0.dtd"
   xmlns:xlink="http://www.w3.org/1999/xlink"
   xmlns="http://www.w3.org/2000/svg"
   xmlns:svg="http://www.w3.org/2000/svg">
  <sodipodi:namedview
     id="namedview1"
     pagecolor="#ffffff"
     bordercolor="#000000"
     borderopacity="0.25"
     inkscape:showpageshadow="2"
     inkscape:pageopacity="0.0"
     inkscape:pagecheckerboard="0"
     inkscape:deskcolor="#d1d1d1"
     inkscape:document-units="mm"
     inkscape:zoom="1.4162996"
     inkscape:cx="311.37479"
     inkscape:cy="152.86313"
     inkscape:window-width="1696"
     inkscape:window-height="1026"
     inkscape:window-x="10"
     inkscape:window-y="48"
     inkscape:window-maximized="0"
     inkscape:current-layer="layer1" />
  <defs
     id="defs1">
    <pattern
       inkscape:collect="always"
       xlink:href="#Strips1_1"
       preserveAspectRatio="xMidYMid"
       id="pattern115"
       patternTransform="rotate(20,85.606908,-63.194272)"
       x="0"
       y="0" />
    <pattern
       inkscape:collect="always"
       patternUnits="userSpaceOnUse"
       width="2"
       height="10"
       patternTransform="translate(0,0) scale(2,2)"
       preserveAspectRatio="xMidYMid"
       id="Strips1_1"
       style="fill:#b3b3b3"
       inkscape:stockid="Stripes 01 (1:1)"
       inkscape:isstock="true"
       inkscape:label="Stripes 01 (1:1)">
      <rect
   style="stroke:none"
   x="0"
   y="-0.5"
   width="1"
   height="11"
   id="rect134" />

    </pattern>
    <marker
       style="overflow:visible"
       id="marker107"
       refX="0"
       refY="0"
       orient="auto-start-reverse"
       inkscape:stockid="Triangle arrow"
       markerWidth="1"
       markerHeight="1"
       viewBox="0 0 1 1"
       inkscape:isstock="true"
       inkscape:collect="always"
       preserveAspectRatio="xMidYMid">
      <path
         transform="scale(0.5)"
         style="fill:context-stroke;fill-rule:evenodd;stroke:context-stroke;stroke-width:1pt"
         d="M 5.77,0 -2.88,5 V -5 Z"
         id="path107" />
    </marker>
    <marker
       style="overflow:visible"
       id="Triangle"
       refX="0"
       refY="0"
       orient="auto-start-reverse"
       inkscape:stockid="Triangle arrow"
       markerWidth="1"
       markerHeight="1"
       viewBox="0 0 1 1"
       inkscape:isstock="true"
       inkscape:collect="always"
       preserveAspectRatio="xMidYMid">
      <path
         transform="scale(0.5)"
         style="fill:context-stroke;fill-rule:evenodd;stroke:context-stroke;stroke-width:1pt"
         d="M 5.77,0 -2.88,5 V -5 Z"
         id="path135" />
    </marker>
    <g
       id="g13">
      <g
         id="glyph-0-0">
        <path
           d="m 1.71875,-7.140625 c 0,-0.15625 0,-0.34375 -0.203125,-0.34375 -0.203125,0 -0.203125,0.234375 -0.203125,0.375 V 2.125 c 0,0.15625 0,0.375 0.203125,0.375 C 1.71875,2.5 1.71875,2.3125 1.71875,2.15625 Z m 1.9375,0.03125 c 0,-0.15625 0,-0.375 -0.203125,-0.375 -0.1875,0 -0.1875,0.1875 -0.1875,0.34375 V 2.15625 c 0,0.15625 0,0.34375 0.1875,0.34375 C 3.65625,2.5 3.65625,2.265625 3.65625,2.125 Z m 0,0"
           id="path1" />
      </g>
      <g
         id="glyph-0-1">
        <path
           d="m 1.578125,-7.125 c 0,-0.171875 0,-0.359375 -0.1875,-0.359375 -0.203125,0 -0.203125,0.1875 -0.203125,0.359375 v 9.265625 c 0,0.171875 0,0.359375 0.203125,0.359375 0.1875,0 0.1875,-0.1875 0.1875,-0.359375 z m 0,0"
           id="path2" />
      </g>
      <g
         id="glyph-1-0">
        <path
           d="M 3.328125,-3.015625 C 3.390625,-3.265625 3.625,-4.1875 4.3125,-4.1875 c 0.046875,0 0.296875,0 0.5,0.125 C 4.53125,-4 4.34375,-3.765625 4.34375,-3.515625 c 0,0.15625 0.109375,0.34375 0.375,0.34375 0.21875,0 0.53125,-0.171875 0.53125,-0.578125 0,-0.515625 -0.578125,-0.65625 -0.921875,-0.65625 -0.578125,0 -0.921875,0.53125 -1.046875,0.75 -0.25,-0.65625 -0.78125,-0.75 -1.078125,-0.75 -1.03125,0 -1.609375,1.28125 -1.609375,1.53125 0,0.109375 0.109375,0.109375 0.125,0.109375 0.078125,0 0.109375,-0.03125 0.125,-0.109375 0.34375,-1.0625 1,-1.3125 1.34375,-1.3125 0.1875,0 0.53125,0.09375 0.53125,0.671875 0,0.3125 -0.171875,0.96875 -0.53125,2.375 -0.15625,0.609375 -0.515625,1.03125 -0.953125,1.03125 -0.0625,0 -0.28125,0 -0.5,-0.125 0.25,-0.0625 0.46875,-0.265625 0.46875,-0.546875 0,-0.265625 -0.21875,-0.34375 -0.359375,-0.34375 -0.3125,0 -0.546875,0.25 -0.546875,0.578125 0,0.453125 0.484375,0.65625 0.921875,0.65625 0.671875,0 1.03125,-0.703125 1.046875,-0.75 0.125,0.359375 0.484375,0.75 1.078125,0.75 1.03125,0 1.59375,-1.28125 1.59375,-1.53125 0,-0.109375 -0.078125,-0.109375 -0.109375,-0.109375 -0.09375,0 -0.109375,0.046875 -0.140625,0.109375 -0.328125,1.078125 -1,1.3125 -1.3125,1.3125 -0.390625,0 -0.546875,-0.3125 -0.546875,-0.65625 0,-0.21875 0.046875,-0.4375 0.15625,-0.875 z m 0,0"
           id="path3" />
      </g>
      <g
         id="glyph-2-0">
        <path
           d="m 0.515625,0.84375 c -0.046875,0.203125 -0.0625,0.25 -0.328125,0.25 -0.09375,0 -0.1875,0 -0.1875,0.15625 0,0.078125 0.0625,0.109375 0.09375,0.109375 0.171875,0 0.40625,-0.03125 0.59375,-0.03125 0.234375,0 0.5,0.03125 0.734375,0.03125 0.0625,0 0.140625,-0.03125 0.140625,-0.15625 0,-0.109375 -0.09375,-0.109375 -0.1875,-0.109375 -0.15625,0 -0.34375,0 -0.34375,-0.078125 0,-0.03125 0.0625,-0.21875 0.078125,-0.3125 0.09375,-0.375 0.1875,-0.75 0.265625,-1.046875 0.078125,0.140625 0.296875,0.40625 0.71875,0.40625 0.84375,0 1.78125,-0.9375 1.78125,-1.96875 0,-0.8125 -0.5625,-1.171875 -1.03125,-1.171875 -0.4375,0 -0.8125,0.296875 -1,0.5 -0.109375,-0.40625 -0.5,-0.5 -0.71875,-0.5 -0.265625,0 -0.4375,0.1875 -0.546875,0.375 -0.140625,0.234375 -0.25,0.65625 -0.25,0.703125 0,0.078125 0.09375,0.078125 0.125,0.078125 0.09375,0 0.09375,-0.015625 0.140625,-0.203125 0.109375,-0.40625 0.25,-0.75 0.515625,-0.75 0.1875,0 0.234375,0.15625 0.234375,0.34375 0,0.078125 -0.015625,0.15625 -0.03125,0.203125 z M 1.84375,-2.234375 C 2.25,-2.78125 2.59375,-2.875 2.8125,-2.875 c 0.28125,0 0.515625,0.203125 0.515625,0.671875 0,0.28125 -0.15625,1 -0.359375,1.40625 -0.1875,0.34375 -0.515625,0.671875 -0.875,0.671875 -0.5,0 -0.625,-0.53125 -0.625,-0.609375 0,-0.03125 0.015625,-0.078125 0.015625,-0.109375 z m 0,0"
           id="path4" />
      </g>
      <g
         id="glyph-2-1">
        <path
           d="m 0.84375,-0.4375 c -0.015625,0.09375 -0.0625,0.265625 -0.0625,0.28125 0,0.15625 0.125,0.21875 0.234375,0.21875 0.125,0 0.234375,-0.078125 0.28125,-0.140625 0.03125,-0.0625 0.078125,-0.296875 0.125,-0.4375 0.03125,-0.125 0.109375,-0.453125 0.140625,-0.625 0.046875,-0.15625 0.09375,-0.3125 0.125,-0.46875 0.078125,-0.28125 0.09375,-0.34375 0.296875,-0.625 C 2.171875,-2.515625 2.5,-2.875 3.03125,-2.875 c 0.390625,0 0.40625,0.359375 0.40625,0.484375 0,0.421875 -0.296875,1.1875 -0.40625,1.484375 -0.078125,0.203125 -0.109375,0.265625 -0.109375,0.375 0,0.375 0.296875,0.59375 0.65625,0.59375 0.703125,0 1,-0.953125 1,-1.0625 0,-0.09375 -0.078125,-0.09375 -0.109375,-0.09375 -0.09375,0 -0.09375,0.046875 -0.125,0.125 C 4.1875,-0.40625 3.875,-0.125 3.609375,-0.125 c -0.15625,0 -0.1875,-0.09375 -0.1875,-0.25 0,-0.15625 0.046875,-0.25 0.171875,-0.5625 0.078125,-0.21875 0.359375,-0.953125 0.359375,-1.34375 0,-0.671875 -0.53125,-0.796875 -0.90625,-0.796875 -0.578125,0 -0.96875,0.359375 -1.171875,0.640625 -0.046875,-0.484375 -0.453125,-0.640625 -0.75,-0.640625 -0.296875,0 -0.453125,0.21875 -0.546875,0.375 -0.15625,0.265625 -0.25,0.65625 -0.25,0.703125 0,0.078125 0.09375,0.078125 0.125,0.078125 0.09375,0 0.09375,-0.015625 0.140625,-0.203125 0.109375,-0.40625 0.25,-0.75 0.515625,-0.75 0.1875,0 0.234375,0.15625 0.234375,0.34375 0,0.125 -0.0625,0.390625 -0.125,0.578125 -0.046875,0.1875 -0.109375,0.46875 -0.140625,0.625 z m 0,0"
           id="path5" />
      </g>
      <g
         id="glyph-2-2">
        <path
           d="m 2.265625,-4.359375 c 0,-0.109375 -0.09375,-0.265625 -0.28125,-0.265625 -0.1875,0 -0.390625,0.1875 -0.390625,0.390625 0,0.109375 0.078125,0.265625 0.28125,0.265625 0.1875,0 0.390625,-0.203125 0.390625,-0.390625 z M 0.84375,-0.8125 c -0.03125,0.09375 -0.0625,0.171875 -0.0625,0.296875 0,0.328125 0.265625,0.578125 0.65625,0.578125 0.6875,0 1,-0.953125 1,-1.0625 0,-0.09375 -0.09375,-0.09375 -0.109375,-0.09375 -0.09375,0 -0.109375,0.046875 -0.140625,0.125 -0.15625,0.5625 -0.453125,0.84375 -0.734375,0.84375 -0.140625,0 -0.171875,-0.09375 -0.171875,-0.25 0,-0.15625 0.046875,-0.28125 0.109375,-0.4375 C 1.46875,-1 1.546875,-1.1875 1.609375,-1.375 1.671875,-1.546875 1.9375,-2.171875 1.953125,-2.265625 1.984375,-2.328125 2,-2.40625 2,-2.484375 2,-2.8125 1.71875,-3.078125 1.34375,-3.078125 0.640625,-3.078125 0.328125,-2.125 0.328125,-2 c 0,0.078125 0.09375,0.078125 0.125,0.078125 0.09375,0 0.09375,-0.03125 0.125,-0.109375 C 0.75,-2.625 1.0625,-2.875 1.3125,-2.875 c 0.109375,0 0.171875,0.046875 0.171875,0.234375 0,0.171875 -0.03125,0.265625 -0.203125,0.703125 z m 0,0"
           id="path6" />
      </g>
      <g
         id="glyph-2-3">
        <path
           d="m 3.484375,-4.921875 c 0.046875,-0.09375 0.046875,-0.109375 0.046875,-0.125 0,-0.109375 -0.09375,-0.171875 -0.171875,-0.171875 -0.109375,0 -0.140625,0.078125 -0.1875,0.171875 L 0.578125,1.4375 C 0.53125,1.53125 0.53125,1.546875 0.53125,1.5625 c 0,0.109375 0.09375,0.171875 0.171875,0.171875 0.125,0 0.15625,-0.078125 0.1875,-0.171875 z m 0,0"
           id="path7" />
      </g>
      <g
         id="glyph-3-0">
        <path
           d="m 6.84375,-3.265625 c 0.15625,0 0.34375,0 0.34375,-0.1875 C 7.1875,-3.65625 7,-3.65625 6.859375,-3.65625 h -5.96875 c -0.140625,0 -0.328125,0 -0.328125,0.203125 0,0.1875 0.1875,0.1875 0.328125,0.1875 z m 0.015625,1.9375 c 0.140625,0 0.328125,0 0.328125,-0.203125 0,-0.1875 -0.1875,-0.1875 -0.34375,-0.1875 H 0.890625 c -0.140625,0 -0.328125,0 -0.328125,0.1875 0,0.203125 0.1875,0.203125 0.328125,0.203125 z m 0,0"
           id="path8" />
      </g>
      <g
         id="glyph-4-0">
        <path
           d="m 7.546875,29.390625 c 0,-0.01563 0,-0.04687 -0.0625,-0.109375 C 6.53125,28.125 5.734375,26.84375 5.140625,25.453125 3.84375,22.40625 3.3125,18.84375 3.3125,14.546875 3.3125,10.3125 3.8125,6.578125 5.28125,3.3125 5.859375,2.046875 6.625,0.875 7.5,-0.203125 c 0.03125,-0.03125 0.046875,-0.0625 0.046875,-0.09375 0,-0.109375 -0.0625,-0.109375 -0.21875,-0.109375 -0.15625,0 -0.171875,0 -0.1875,0.03125 -0.015625,0 -0.625,0.609375 -1.40625,1.703125 C 4,3.78125 3.125,6.703125 2.671875,9.671875 c -0.234375,1.609375 -0.3125,3.25 -0.3125,4.875 0,3.71875 0.46875,7.53125 2.0625,10.9375 C 5.125,27 6.078125,28.375 7.0625,29.40625 7.140625,29.484375 7.15625,29.5 7.328125,29.5 c 0.15625,0 0.21875,0 0.21875,-0.109375 z m 0,0"
           id="path9" />
      </g>
      <g
         id="glyph-4-1">
        <path
           d="m 12.625,13.953125 1.203125,-3.1875 h -0.25 c -0.390625,1.03125 -1.453125,1.71875 -2.59375,2.015625 -0.203125,0.04687 -1.1875,0.3125 -3.09375,0.3125 H 1.875 L 6.953125,7.140625 C 7.015625,7.0625 7.03125,7.03125 7.03125,6.984375 c 0,-0.03125 0,-0.0625 -0.0625,-0.15625 L 2.328125,0.484375 H 7.78125 c 1.34375,0 2.25,0.140625 2.34375,0.15625 0.53125,0.078125 1.40625,0.25 2.1875,0.75 0.25,0.15625 0.921875,0.609375 1.265625,1.40625 h 0.25 L 12.625,0 H 0.84375 c -0.234375,0 -0.25,0.015625 -0.28125,0.0625 0,0.03125 0,0.234375 0,0.34375 l 5.265625,7.203125 -5.15625,6.0625 C 0.5625,13.78125 0.5625,13.84375 0.5625,13.84375 c 0,0.109375 0.09375,0.109375 0.28125,0.109375 z m 0,0"
           id="path10" />
      </g>
      <g
         id="glyph-4-2">
        <path
           d="m 5.53125,14.546875 c 0,-3.71875 -0.46875,-7.53125 -2.0625,-10.9375 C 2.765625,2.09375 1.8125,0.734375 0.828125,-0.3125 0.734375,-0.390625 0.734375,-0.40625 0.5625,-0.40625 c -0.140625,0 -0.21875,0 -0.21875,0.109375 0,0.03125 0.03125,0.09375 0.0625,0.125 0.953125,1.15625 1.75,2.421875 2.328125,3.8125 1.3125,3.046875 1.828125,6.625 1.828125,10.90625 0,4.25 -0.484375,7.96875 -1.953125,11.25 C 2.03125,27.0625 1.265625,28.234375 0.375,29.3125 c 0,0.01563 -0.03125,0.0625 -0.03125,0.07813 0,0.10937 0.078125,0.10937 0.21875,0.10937 0.140625,0 0.171875,0 0.1875,-0.01563 0,-0.01563 0.625,-0.609375 1.40625,-1.71875 1.734375,-2.4375 2.609375,-5.375 3.0625,-8.34375 0.234375,-1.609375 0.3125,-3.25 0.3125,-4.875 z m 0,0"
           id="path11" />
      </g>
      <g
         id="glyph-5-0">
        <path
           d="m 5.359375,-2.34375 c 0.09375,0 0.25,0 0.25,-0.171875 0,-0.171875 -0.15625,-0.171875 -0.25,-0.171875 H 0.75 c -0.09375,0 -0.265625,0 -0.265625,0.171875 0,0.171875 0.15625,0.171875 0.265625,0.171875 z m 0,1.53125 c 0.09375,0 0.25,0 0.25,-0.15625 0,-0.1875 -0.15625,-0.1875 -0.25,-0.1875 H 0.75 c -0.109375,0 -0.265625,0 -0.265625,0.1875 0,0.15625 0.171875,0.15625 0.265625,0.15625 z m 0,0"
           id="path12" />
      </g>
      <g
         id="glyph-5-1">
        <path
           d="m 2.328125,-4.4375 c 0,-0.1875 0,-0.1875 -0.203125,-0.1875 -0.453125,0.4375 -1.078125,0.4375 -1.359375,0.4375 v 0.25 c 0.15625,0 0.625,0 1,-0.1875 v 3.546875 c 0,0.234375 0,0.328125 -0.6875,0.328125 H 0.8125 V 0 c 0.125,0 0.984375,-0.03125 1.234375,-0.03125 0.21875,0 1.09375,0.03125 1.25,0.03125 V -0.25 H 3.03125 c -0.703125,0 -0.703125,-0.09375 -0.703125,-0.328125 z m 0,0"
           id="path13" />
      </g>
    </g>
    <g
       id="g13-7">
      <g
         id="glyph-0-0-9">
        <path
           d="m 1.71875,-7.140625 c 0,-0.15625 0,-0.34375 -0.203125,-0.34375 -0.203125,0 -0.203125,0.234375 -0.203125,0.375 V 2.125 c 0,0.15625 0,0.375 0.203125,0.375 C 1.71875,2.5 1.71875,2.3125 1.71875,2.15625 Z m 1.9375,0.03125 c 0,-0.15625 0,-0.375 -0.203125,-0.375 -0.1875,0 -0.1875,0.1875 -0.1875,0.34375 V 2.15625 c 0,0.15625 0,0.34375 0.1875,0.34375 C 3.65625,2.5 3.65625,2.265625 3.65625,2.125 Z m 0,0"
           id="path1-3" />
      </g>
      <g
         id="glyph-0-1-8">
        <path
           d="m 1.578125,-7.125 c 0,-0.171875 0,-0.359375 -0.1875,-0.359375 -0.203125,0 -0.203125,0.1875 -0.203125,0.359375 v 9.265625 c 0,0.171875 0,0.359375 0.203125,0.359375 0.1875,0 0.1875,-0.1875 0.1875,-0.359375 z m 0,0"
           id="path2-0" />
      </g>
      <g
         id="glyph-1-0-2">
        <path
           d="M 3.328125,-3.015625 C 3.390625,-3.265625 3.625,-4.1875 4.3125,-4.1875 c 0.046875,0 0.296875,0 0.5,0.125 C 4.53125,-4 4.34375,-3.765625 4.34375,-3.515625 c 0,0.15625 0.109375,0.34375 0.375,0.34375 0.21875,0 0.53125,-0.171875 0.53125,-0.578125 0,-0.515625 -0.578125,-0.65625 -0.921875,-0.65625 -0.578125,0 -0.921875,0.53125 -1.046875,0.75 -0.25,-0.65625 -0.78125,-0.75 -1.078125,-0.75 -1.03125,0 -1.609375,1.28125 -1.609375,1.53125 0,0.109375 0.109375,0.109375 0.125,0.109375 0.078125,0 0.109375,-0.03125 0.125,-0.109375 0.34375,-1.0625 1,-1.3125 1.34375,-1.3125 0.1875,0 0.53125,0.09375 0.53125,0.671875 0,0.3125 -0.171875,0.96875 -0.53125,2.375 -0.15625,0.609375 -0.515625,1.03125 -0.953125,1.03125 -0.0625,0 -0.28125,0 -0.5,-0.125 0.25,-0.0625 0.46875,-0.265625 0.46875,-0.546875 0,-0.265625 -0.21875,-0.34375 -0.359375,-0.34375 -0.3125,0 -0.546875,0.25 -0.546875,0.578125 0,0.453125 0.484375,0.65625 0.921875,0.65625 0.671875,0 1.03125,-0.703125 1.046875,-0.75 0.125,0.359375 0.484375,0.75 1.078125,0.75 1.03125,0 1.59375,-1.28125 1.59375,-1.53125 0,-0.109375 -0.078125,-0.109375 -0.109375,-0.109375 -0.09375,0 -0.109375,0.046875 -0.140625,0.109375 -0.328125,1.078125 -1,1.3125 -1.3125,1.3125 -0.390625,0 -0.546875,-0.3125 -0.546875,-0.65625 0,-0.21875 0.046875,-0.4375 0.15625,-0.875 z m 0,0"
           id="path3-4" />
      </g>
      <g
         id="glyph-2-0-8">
        <path
           d="m 0.515625,0.84375 c -0.046875,0.203125 -0.0625,0.25 -0.328125,0.25 -0.09375,0 -0.1875,0 -0.1875,0.15625 0,0.078125 0.0625,0.109375 0.09375,0.109375 0.171875,0 0.40625,-0.03125 0.59375,-0.03125 0.234375,0 0.5,0.03125 0.734375,0.03125 0.0625,0 0.140625,-0.03125 0.140625,-0.15625 0,-0.109375 -0.09375,-0.109375 -0.1875,-0.109375 -0.15625,0 -0.34375,0 -0.34375,-0.078125 0,-0.03125 0.0625,-0.21875 0.078125,-0.3125 0.09375,-0.375 0.1875,-0.75 0.265625,-1.046875 0.078125,0.140625 0.296875,0.40625 0.71875,0.40625 0.84375,0 1.78125,-0.9375 1.78125,-1.96875 0,-0.8125 -0.5625,-1.171875 -1.03125,-1.171875 -0.4375,0 -0.8125,0.296875 -1,0.5 -0.109375,-0.40625 -0.5,-0.5 -0.71875,-0.5 -0.265625,0 -0.4375,0.1875 -0.546875,0.375 -0.140625,0.234375 -0.25,0.65625 -0.25,0.703125 0,0.078125 0.09375,0.078125 0.125,0.078125 0.09375,0 0.09375,-0.015625 0.140625,-0.203125 0.109375,-0.40625 0.25,-0.75 0.515625,-0.75 0.1875,0 0.234375,0.15625 0.234375,0.34375 0,0.078125 -0.015625,0.15625 -0.03125,0.203125 z M 1.84375,-2.234375 C 2.25,-2.78125 2.59375,-2.875 2.8125,-2.875 c 0.28125,0 0.515625,0.203125 0.515625,0.671875 0,0.28125 -0.15625,1 -0.359375,1.40625 -0.1875,0.34375 -0.515625,0.671875 -0.875,0.671875 -0.5,0 -0.625,-0.53125 -0.625,-0.609375 0,-0.03125 0.015625,-0.078125 0.015625,-0.109375 z m 0,0"
           id="path4-3" />
      </g>
      <g
         id="glyph-2-1-9">
        <path
           d="m 0.84375,-0.4375 c -0.015625,0.09375 -0.0625,0.265625 -0.0625,0.28125 0,0.15625 0.125,0.21875 0.234375,0.21875 0.125,0 0.234375,-0.078125 0.28125,-0.140625 0.03125,-0.0625 0.078125,-0.296875 0.125,-0.4375 0.03125,-0.125 0.109375,-0.453125 0.140625,-0.625 0.046875,-0.15625 0.09375,-0.3125 0.125,-0.46875 0.078125,-0.28125 0.09375,-0.34375 0.296875,-0.625 C 2.171875,-2.515625 2.5,-2.875 3.03125,-2.875 c 0.390625,0 0.40625,0.359375 0.40625,0.484375 0,0.421875 -0.296875,1.1875 -0.40625,1.484375 -0.078125,0.203125 -0.109375,0.265625 -0.109375,0.375 0,0.375 0.296875,0.59375 0.65625,0.59375 0.703125,0 1,-0.953125 1,-1.0625 0,-0.09375 -0.078125,-0.09375 -0.109375,-0.09375 -0.09375,0 -0.09375,0.046875 -0.125,0.125 C 4.1875,-0.40625 3.875,-0.125 3.609375,-0.125 c -0.15625,0 -0.1875,-0.09375 -0.1875,-0.25 0,-0.15625 0.046875,-0.25 0.171875,-0.5625 0.078125,-0.21875 0.359375,-0.953125 0.359375,-1.34375 0,-0.671875 -0.53125,-0.796875 -0.90625,-0.796875 -0.578125,0 -0.96875,0.359375 -1.171875,0.640625 -0.046875,-0.484375 -0.453125,-0.640625 -0.75,-0.640625 -0.296875,0 -0.453125,0.21875 -0.546875,0.375 -0.15625,0.265625 -0.25,0.65625 -0.25,0.703125 0,0.078125 0.09375,0.078125 0.125,0.078125 0.09375,0 0.09375,-0.015625 0.140625,-0.203125 0.109375,-0.40625 0.25,-0.75 0.515625,-0.75 0.1875,0 0.234375,0.15625 0.234375,0.34375 0,0.125 -0.0625,0.390625 -0.125,0.578125 -0.046875,0.1875 -0.109375,0.46875 -0.140625,0.625 z m 0,0"
           id="path5-0" />
      </g>
      <g
         id="glyph-2-2-5">
        <path
           d="m 2.265625,-4.359375 c 0,-0.109375 -0.09375,-0.265625 -0.28125,-0.265625 -0.1875,0 -0.390625,0.1875 -0.390625,0.390625 0,0.109375 0.078125,0.265625 0.28125,0.265625 0.1875,0 0.390625,-0.203125 0.390625,-0.390625 z M 0.84375,-0.8125 c -0.03125,0.09375 -0.0625,0.171875 -0.0625,0.296875 0,0.328125 0.265625,0.578125 0.65625,0.578125 0.6875,0 1,-0.953125 1,-1.0625 0,-0.09375 -0.09375,-0.09375 -0.109375,-0.09375 -0.09375,0 -0.109375,0.046875 -0.140625,0.125 -0.15625,0.5625 -0.453125,0.84375 -0.734375,0.84375 -0.140625,0 -0.171875,-0.09375 -0.171875,-0.25 0,-0.15625 0.046875,-0.28125 0.109375,-0.4375 C 1.46875,-1 1.546875,-1.1875 1.609375,-1.375 1.671875,-1.546875 1.9375,-2.171875 1.953125,-2.265625 1.984375,-2.328125 2,-2.40625 2,-2.484375 2,-2.8125 1.71875,-3.078125 1.34375,-3.078125 0.640625,-3.078125 0.328125,-2.125 0.328125,-2 c 0,0.078125 0.09375,0.078125 0.125,0.078125 0.09375,0 0.09375,-0.03125 0.125,-0.109375 C 0.75,-2.625 1.0625,-2.875 1.3125,-2.875 c 0.109375,0 0.171875,0.046875 0.171875,0.234375 0,0.171875 -0.03125,0.265625 -0.203125,0.703125 z m 0,0"
           id="path6-2" />
      </g>
      <g
         id="glyph-2-3-2">
        <path
           d="m 3.484375,-4.921875 c 0.046875,-0.09375 0.046875,-0.109375 0.046875,-0.125 0,-0.109375 -0.09375,-0.171875 -0.171875,-0.171875 -0.109375,0 -0.140625,0.078125 -0.1875,0.171875 L 0.578125,1.4375 C 0.53125,1.53125 0.53125,1.546875 0.53125,1.5625 c 0,0.109375 0.09375,0.171875 0.171875,0.171875 0.125,0 0.15625,-0.078125 0.1875,-0.171875 z m 0,0"
           id="path7-7" />
      </g>
      <g
         id="glyph-3-0-3">
        <path
           d="m 6.84375,-3.265625 c 0.15625,0 0.34375,0 0.34375,-0.1875 C 7.1875,-3.65625 7,-3.65625 6.859375,-3.65625 h -5.96875 c -0.140625,0 -0.328125,0 -0.328125,0.203125 0,0.1875 0.1875,0.1875 0.328125,0.1875 z m 0.015625,1.9375 c 0.140625,0 0.328125,0 0.328125,-0.203125 0,-0.1875 -0.1875,-0.1875 -0.34375,-0.1875 H 0.890625 c -0.140625,0 -0.328125,0 -0.328125,0.1875 0,0.203125 0.1875,0.203125 0.328125,0.203125 z m 0,0"
           id="path8-7" />
      </g>
      <g
         id="glyph-4-0-9">
        <path
           d="m 7.546875,29.390625 c 0,-0.01563 0,-0.04687 -0.0625,-0.109375 C 6.53125,28.125 5.734375,26.84375 5.140625,25.453125 3.84375,22.40625 3.3125,18.84375 3.3125,14.546875 3.3125,10.3125 3.8125,6.578125 5.28125,3.3125 5.859375,2.046875 6.625,0.875 7.5,-0.203125 c 0.03125,-0.03125 0.046875,-0.0625 0.046875,-0.09375 0,-0.109375 -0.0625,-0.109375 -0.21875,-0.109375 -0.15625,0 -0.171875,0 -0.1875,0.03125 -0.015625,0 -0.625,0.609375 -1.40625,1.703125 C 4,3.78125 3.125,6.703125 2.671875,9.671875 c -0.234375,1.609375 -0.3125,3.25 -0.3125,4.875 0,3.71875 0.46875,7.53125 2.0625,10.9375 C 5.125,27 6.078125,28.375 7.0625,29.40625 7.140625,29.484375 7.15625,29.5 7.328125,29.5 c 0.15625,0 0.21875,0 0.21875,-0.109375 z m 0,0"
           id="path9-0" />
      </g>
      <g
         id="glyph-4-1-2">
        <path
           d="m 12.625,13.953125 1.203125,-3.1875 h -0.25 c -0.390625,1.03125 -1.453125,1.71875 -2.59375,2.015625 -0.203125,0.04687 -1.1875,0.3125 -3.09375,0.3125 H 1.875 L 6.953125,7.140625 C 7.015625,7.0625 7.03125,7.03125 7.03125,6.984375 c 0,-0.03125 0,-0.0625 -0.0625,-0.15625 L 2.328125,0.484375 H 7.78125 c 1.34375,0 2.25,0.140625 2.34375,0.15625 0.53125,0.078125 1.40625,0.25 2.1875,0.75 0.25,0.15625 0.921875,0.609375 1.265625,1.40625 h 0.25 L 12.625,0 H 0.84375 c -0.234375,0 -0.25,0.015625 -0.28125,0.0625 0,0.03125 0,0.234375 0,0.34375 l 5.265625,7.203125 -5.15625,6.0625 C 0.5625,13.78125 0.5625,13.84375 0.5625,13.84375 c 0,0.109375 0.09375,0.109375 0.28125,0.109375 z m 0,0"
           id="path10-3" />
      </g>
      <g
         id="glyph-4-2-9">
        <path
           d="m 5.53125,14.546875 c 0,-3.71875 -0.46875,-7.53125 -2.0625,-10.9375 C 2.765625,2.09375 1.8125,0.734375 0.828125,-0.3125 0.734375,-0.390625 0.734375,-0.40625 0.5625,-0.40625 c -0.140625,0 -0.21875,0 -0.21875,0.109375 0,0.03125 0.03125,0.09375 0.0625,0.125 0.953125,1.15625 1.75,2.421875 2.328125,3.8125 1.3125,3.046875 1.828125,6.625 1.828125,10.90625 0,4.25 -0.484375,7.96875 -1.953125,11.25 C 2.03125,27.0625 1.265625,28.234375 0.375,29.3125 c 0,0.01563 -0.03125,0.0625 -0.03125,0.07813 0,0.10937 0.078125,0.10937 0.21875,0.10937 0.140625,0 0.171875,0 0.1875,-0.01563 0,-0.01563 0.625,-0.609375 1.40625,-1.71875 1.734375,-2.4375 2.609375,-5.375 3.0625,-8.34375 0.234375,-1.609375 0.3125,-3.25 0.3125,-4.875 z m 0,0"
           id="path11-9" />
      </g>
      <g
         id="glyph-5-0-7">
        <path
           d="m 5.359375,-2.34375 c 0.09375,0 0.25,0 0.25,-0.171875 0,-0.171875 -0.15625,-0.171875 -0.25,-0.171875 H 0.75 c -0.09375,0 -0.265625,0 -0.265625,0.171875 0,0.171875 0.15625,0.171875 0.265625,0.171875 z m 0,1.53125 c 0.09375,0 0.25,0 0.25,-0.15625 0,-0.1875 -0.15625,-0.1875 -0.25,-0.1875 H 0.75 c -0.109375,0 -0.265625,0 -0.265625,0.1875 0,0.15625 0.171875,0.15625 0.265625,0.15625 z m 0,0"
           id="path12-0" />
      </g>
      <g
         id="glyph-5-1-3">
        <path
           d="m 2.328125,-4.4375 c 0,-0.1875 0,-0.1875 -0.203125,-0.1875 -0.453125,0.4375 -1.078125,0.4375 -1.359375,0.4375 v 0.25 c 0.15625,0 0.625,0 1,-0.1875 v 3.546875 c 0,0.234375 0,0.328125 -0.6875,0.328125 H 0.8125 V 0 c 0.125,0 0.984375,-0.03125 1.234375,-0.03125 0.21875,0 1.09375,0.03125 1.25,0.03125 V -0.25 H 3.03125 c -0.703125,0 -0.703125,-0.09375 -0.703125,-0.328125 z m 0,0"
           id="path13-9" />
      </g>
    </g>
    <g
       id="g18">
      <g
         id="glyph-0-0-3">
        <path
           d="m 1.71875,-7.140625 c 0,-0.15625 0,-0.34375 -0.203125,-0.34375 -0.203125,0 -0.203125,0.234375 -0.203125,0.375 V 2.125 c 0,0.15625 0,0.375 0.203125,0.375 C 1.71875,2.5 1.71875,2.3125 1.71875,2.15625 Z m 1.9375,0.03125 c 0,-0.15625 0,-0.375 -0.203125,-0.375 -0.1875,0 -0.1875,0.1875 -0.1875,0.34375 V 2.15625 c 0,0.15625 0,0.34375 0.1875,0.34375 C 3.65625,2.5 3.65625,2.265625 3.65625,2.125 Z m 0,0"
           id="path1-0" />
      </g>
      <g
         id="glyph-0-1-84">
        <path
           d="m 1.578125,-7.125 c 0,-0.171875 0,-0.359375 -0.1875,-0.359375 -0.203125,0 -0.203125,0.1875 -0.203125,0.359375 v 9.265625 c 0,0.171875 0,0.359375 0.203125,0.359375 0.1875,0 0.1875,-0.1875 0.1875,-0.359375 z m 0,0"
           id="path2-04" />
      </g>
      <g
         id="glyph-1-0-6">
        <path
           d="M 3.328125,-3.015625 C 3.390625,-3.265625 3.625,-4.1875 4.3125,-4.1875 c 0.046875,0 0.296875,0 0.5,0.125 C 4.53125,-4 4.34375,-3.765625 4.34375,-3.515625 c 0,0.15625 0.109375,0.34375 0.375,0.34375 0.21875,0 0.53125,-0.171875 0.53125,-0.578125 0,-0.515625 -0.578125,-0.65625 -0.921875,-0.65625 -0.578125,0 -0.921875,0.53125 -1.046875,0.75 -0.25,-0.65625 -0.78125,-0.75 -1.078125,-0.75 -1.03125,0 -1.609375,1.28125 -1.609375,1.53125 0,0.109375 0.109375,0.109375 0.125,0.109375 0.078125,0 0.109375,-0.03125 0.125,-0.109375 0.34375,-1.0625 1,-1.3125 1.34375,-1.3125 0.1875,0 0.53125,0.09375 0.53125,0.671875 0,0.3125 -0.171875,0.96875 -0.53125,2.375 -0.15625,0.609375 -0.515625,1.03125 -0.953125,1.03125 -0.0625,0 -0.28125,0 -0.5,-0.125 0.25,-0.0625 0.46875,-0.265625 0.46875,-0.546875 0,-0.265625 -0.21875,-0.34375 -0.359375,-0.34375 -0.3125,0 -0.546875,0.25 -0.546875,0.578125 0,0.453125 0.484375,0.65625 0.921875,0.65625 0.671875,0 1.03125,-0.703125 1.046875,-0.75 0.125,0.359375 0.484375,0.75 1.078125,0.75 1.03125,0 1.59375,-1.28125 1.59375,-1.53125 0,-0.109375 -0.078125,-0.109375 -0.109375,-0.109375 -0.09375,0 -0.109375,0.046875 -0.140625,0.109375 -0.328125,1.078125 -1,1.3125 -1.3125,1.3125 -0.390625,0 -0.546875,-0.3125 -0.546875,-0.65625 0,-0.21875 0.046875,-0.4375 0.15625,-0.875 z m 0,0"
           id="path3-46" />
      </g>
      <g
         id="glyph-2-0-4">
        <path
           d="m 0.515625,0.84375 c -0.046875,0.203125 -0.0625,0.25 -0.328125,0.25 -0.09375,0 -0.1875,0 -0.1875,0.15625 0,0.078125 0.0625,0.109375 0.09375,0.109375 0.171875,0 0.40625,-0.03125 0.59375,-0.03125 0.234375,0 0.5,0.03125 0.734375,0.03125 0.0625,0 0.140625,-0.03125 0.140625,-0.15625 0,-0.109375 -0.09375,-0.109375 -0.1875,-0.109375 -0.15625,0 -0.34375,0 -0.34375,-0.078125 0,-0.03125 0.0625,-0.21875 0.078125,-0.3125 0.09375,-0.375 0.1875,-0.75 0.265625,-1.046875 0.078125,0.140625 0.296875,0.40625 0.71875,0.40625 0.84375,0 1.78125,-0.9375 1.78125,-1.96875 0,-0.8125 -0.5625,-1.171875 -1.03125,-1.171875 -0.4375,0 -0.8125,0.296875 -1,0.5 -0.109375,-0.40625 -0.5,-0.5 -0.71875,-0.5 -0.265625,0 -0.4375,0.1875 -0.546875,0.375 -0.140625,0.234375 -0.25,0.65625 -0.25,0.703125 0,0.078125 0.09375,0.078125 0.125,0.078125 0.09375,0 0.09375,-0.015625 0.140625,-0.203125 0.109375,-0.40625 0.25,-0.75 0.515625,-0.75 0.1875,0 0.234375,0.15625 0.234375,0.34375 0,0.078125 -0.015625,0.15625 -0.03125,0.203125 z M 1.84375,-2.234375 C 2.25,-2.78125 2.59375,-2.875 2.8125,-2.875 c 0.28125,0 0.515625,0.203125 0.515625,0.671875 0,0.28125 -0.15625,1 -0.359375,1.40625 -0.1875,0.34375 -0.515625,0.671875 -0.875,0.671875 -0.5,0 -0.625,-0.53125 -0.625,-0.609375 0,-0.03125 0.015625,-0.078125 0.015625,-0.109375 z m 0,0"
           id="path4-38" />
      </g>
      <g
         id="glyph-2-1-4">
        <path
           d="m 0.84375,-0.4375 c -0.015625,0.09375 -0.0625,0.265625 -0.0625,0.28125 0,0.15625 0.125,0.21875 0.234375,0.21875 0.125,0 0.234375,-0.078125 0.28125,-0.140625 0.03125,-0.0625 0.078125,-0.296875 0.125,-0.4375 0.03125,-0.125 0.109375,-0.453125 0.140625,-0.625 0.046875,-0.15625 0.09375,-0.3125 0.125,-0.46875 0.078125,-0.28125 0.09375,-0.34375 0.296875,-0.625 C 2.171875,-2.515625 2.5,-2.875 3.03125,-2.875 c 0.390625,0 0.40625,0.359375 0.40625,0.484375 0,0.421875 -0.296875,1.1875 -0.40625,1.484375 -0.078125,0.203125 -0.109375,0.265625 -0.109375,0.375 0,0.375 0.296875,0.59375 0.65625,0.59375 0.703125,0 1,-0.953125 1,-1.0625 0,-0.09375 -0.078125,-0.09375 -0.109375,-0.09375 -0.09375,0 -0.09375,0.046875 -0.125,0.125 C 4.1875,-0.40625 3.875,-0.125 3.609375,-0.125 c -0.15625,0 -0.1875,-0.09375 -0.1875,-0.25 0,-0.15625 0.046875,-0.25 0.171875,-0.5625 0.078125,-0.21875 0.359375,-0.953125 0.359375,-1.34375 0,-0.671875 -0.53125,-0.796875 -0.90625,-0.796875 -0.578125,0 -0.96875,0.359375 -1.171875,0.640625 -0.046875,-0.484375 -0.453125,-0.640625 -0.75,-0.640625 -0.296875,0 -0.453125,0.21875 -0.546875,0.375 -0.15625,0.265625 -0.25,0.65625 -0.25,0.703125 0,0.078125 0.09375,0.078125 0.125,0.078125 0.09375,0 0.09375,-0.015625 0.140625,-0.203125 0.109375,-0.40625 0.25,-0.75 0.515625,-0.75 0.1875,0 0.234375,0.15625 0.234375,0.34375 0,0.125 -0.0625,0.390625 -0.125,0.578125 -0.046875,0.1875 -0.109375,0.46875 -0.140625,0.625 z m 0,0"
           id="path5-00" />
      </g>
      <g
         id="glyph-2-2-9">
        <path
           d="m 2.265625,-4.359375 c 0,-0.109375 -0.09375,-0.265625 -0.28125,-0.265625 -0.1875,0 -0.390625,0.1875 -0.390625,0.390625 0,0.109375 0.078125,0.265625 0.28125,0.265625 0.1875,0 0.390625,-0.203125 0.390625,-0.390625 z M 0.84375,-0.8125 c -0.03125,0.09375 -0.0625,0.171875 -0.0625,0.296875 0,0.328125 0.265625,0.578125 0.65625,0.578125 0.6875,0 1,-0.953125 1,-1.0625 0,-0.09375 -0.09375,-0.09375 -0.109375,-0.09375 -0.09375,0 -0.109375,0.046875 -0.140625,0.125 -0.15625,0.5625 -0.453125,0.84375 -0.734375,0.84375 -0.140625,0 -0.171875,-0.09375 -0.171875,-0.25 0,-0.15625 0.046875,-0.28125 0.109375,-0.4375 C 1.46875,-1 1.546875,-1.1875 1.609375,-1.375 1.671875,-1.546875 1.9375,-2.171875 1.953125,-2.265625 1.984375,-2.328125 2,-2.40625 2,-2.484375 2,-2.8125 1.71875,-3.078125 1.34375,-3.078125 0.640625,-3.078125 0.328125,-2.125 0.328125,-2 c 0,0.078125 0.09375,0.078125 0.125,0.078125 0.09375,0 0.09375,-0.03125 0.125,-0.109375 C 0.75,-2.625 1.0625,-2.875 1.3125,-2.875 c 0.109375,0 0.171875,0.046875 0.171875,0.234375 0,0.171875 -0.03125,0.265625 -0.203125,0.703125 z m 0,0"
           id="path6-3" />
      </g>
      <g
         id="glyph-2-3-7">
        <path
           d="m 3.484375,-4.921875 c 0.046875,-0.09375 0.046875,-0.109375 0.046875,-0.125 0,-0.109375 -0.09375,-0.171875 -0.171875,-0.171875 -0.109375,0 -0.140625,0.078125 -0.1875,0.171875 L 0.578125,1.4375 C 0.53125,1.53125 0.53125,1.546875 0.53125,1.5625 c 0,0.109375 0.09375,0.171875 0.171875,0.171875 0.125,0 0.15625,-0.078125 0.1875,-0.171875 z m 0,0"
           id="path7-5" />
      </g>
      <g
         id="glyph-3-0-7">
        <path
           d="m 6.84375,-3.265625 c 0.15625,0 0.34375,0 0.34375,-0.1875 C 7.1875,-3.65625 7,-3.65625 6.859375,-3.65625 h -5.96875 c -0.140625,0 -0.328125,0 -0.328125,0.203125 0,0.1875 0.1875,0.1875 0.328125,0.1875 z m 0.015625,1.9375 c 0.140625,0 0.328125,0 0.328125,-0.203125 0,-0.1875 -0.1875,-0.1875 -0.34375,-0.1875 H 0.890625 c -0.140625,0 -0.328125,0 -0.328125,0.1875 0,0.203125 0.1875,0.203125 0.328125,0.203125 z m 0,0"
           id="path8-2" />
      </g>
      <g
         id="glyph-3-1">
        <path
           d="M 1.765625,-6.921875 0.328125,-6.8125 V -6.5 c 0.703125,0 0.78125,0.0625 0.78125,0.5625 V -0.75 c 0,0.4375 -0.109375,0.4375 -0.78125,0.4375 V 0 C 0.65625,-0.015625 1.1875,-0.03125 1.4375,-0.03125 c 0.25,0 0.734375,0.015625 1.109375,0.03125 v -0.3125 c -0.671875,0 -0.78125,0 -0.78125,-0.4375 z m 0,0"
           id="path9-9" />
      </g>
      <g
         id="glyph-3-2">
        <path
           d="M 1.765625,-4.40625 0.375,-4.296875 v 0.3125 c 0.640625,0 0.734375,0.0625 0.734375,0.546875 V -0.75 c 0,0.4375 -0.109375,0.4375 -0.78125,0.4375 V 0 C 0.640625,-0.015625 1.1875,-0.03125 1.421875,-0.03125 1.78125,-0.03125 2.125,-0.015625 2.46875,0 v -0.3125 c -0.671875,0 -0.703125,-0.046875 -0.703125,-0.4375 z m 0.03125,-1.734375 c 0,-0.3125 -0.234375,-0.53125 -0.515625,-0.53125 -0.3125,0 -0.53125,0.265625 -0.53125,0.53125 0,0.265625 0.21875,0.53125 0.53125,0.53125 0.28125,0 0.515625,-0.21875 0.515625,-0.53125 z m 0,0"
           id="path10-7" />
      </g>
      <g
         id="glyph-3-3">
        <path
           d="M 1.09375,-3.421875 V -0.75 c 0,0.4375 -0.109375,0.4375 -0.78125,0.4375 V 0 c 0.359375,-0.015625 0.859375,-0.03125 1.140625,-0.03125 0.25,0 0.765625,0.015625 1.109375,0.03125 v -0.3125 c -0.671875,0 -0.78125,0 -0.78125,-0.4375 V -2.59375 C 1.78125,-3.625 2.5,-4.1875 3.125,-4.1875 c 0.640625,0 0.75,0.53125 0.75,1.109375 V -0.75 c 0,0.4375 -0.109375,0.4375 -0.78125,0.4375 V 0 c 0.34375,-0.015625 0.859375,-0.03125 1.125,-0.03125 0.25,0 0.78125,0.015625 1.109375,0.03125 v -0.3125 c -0.65625,0 -0.765625,0 -0.765625,-0.4375 v -1.84375 c 0,-1.03125 0.703125,-1.59375 1.34375,-1.59375 0.625,0 0.734375,0.53125 0.734375,1.109375 V -0.75 c 0,0.4375 -0.109375,0.4375 -0.78125,0.4375 V 0 c 0.34375,-0.015625 0.859375,-0.03125 1.125,-0.03125 0.265625,0 0.78125,0.015625 1.125,0.03125 v -0.3125 c -0.515625,0 -0.765625,0 -0.78125,-0.296875 v -1.90625 c 0,-0.859375 0,-1.15625 -0.3125,-1.515625 -0.140625,-0.171875 -0.46875,-0.375 -1.046875,-0.375 -0.828125,0 -1.28125,0.59375 -1.4375,0.984375 C 4.390625,-4.296875 3.65625,-4.40625 3.203125,-4.40625 2.46875,-4.40625 2,-3.984375 1.71875,-3.359375 V -4.40625 L 0.3125,-4.296875 v 0.3125 c 0.703125,0 0.78125,0.0625 0.78125,0.5625 z m 0,0"
           id="path11-5" />
      </g>
      <g
         id="glyph-4-0-6">
        <path
           d="m 6.40625,-1.578125 c -0.875,0.640625 -0.984375,1.5625 -0.984375,1.5625 0,0.109375 0.0625,0.109375 0.15625,0.109375 0.125,0 0.15625,0 0.1875,-0.125 0.046875,-0.171875 0.15625,-0.609375 0.515625,-1 0.40625,-0.421875 0.75,-0.53125 1.046875,-0.625 0.03125,-0.015625 0.0625,-0.046875 0.0625,-0.078125 0,-0.078125 -0.03125,-0.09375 -0.125,-0.125 C 6.265625,-2.171875 5.90625,-2.890625 5.75,-3.5 5.734375,-3.578125 5.671875,-3.578125 5.578125,-3.578125 c -0.09375,0 -0.15625,0 -0.15625,0.09375 0,0.015625 0.0625,0.484375 0.40625,0.96875 0.15625,0.234375 0.359375,0.4375 0.578125,0.59375 H 0.8125 c -0.109375,0 -0.28125,0 -0.28125,0.171875 0,0.171875 0.171875,0.171875 0.28125,0.171875 z m 0,0"
           id="path12-5" />
      </g>
      <g
         id="glyph-4-1-3">
        <path
           d="m 4.03125,-1.90625 c -0.375,-0.4375 -0.484375,-0.546875 -0.75,-0.734375 -0.421875,-0.3125 -0.875,-0.4375 -1.25,-0.4375 -0.875,0 -1.5,0.75 -1.5,1.578125 0,0.8125 0.609375,1.5625 1.46875,1.5625 0.96875,0 1.65625,-0.78125 1.90625,-1.15625 0.359375,0.4375 0.484375,0.546875 0.734375,0.734375 0.4375,0.3125 0.875,0.421875 1.265625,0.421875 0.859375,0 1.484375,-0.734375 1.484375,-1.5625 0,-0.828125 -0.59375,-1.578125 -1.46875,-1.578125 -0.96875,0 -1.640625,0.796875 -1.890625,1.171875 z m 0.21875,0.25 c 0.28125,-0.453125 0.890625,-1.15625 1.734375,-1.15625 0.71875,0 1.21875,0.640625 1.21875,1.3125 0,0.65625 -0.546875,1.1875 -1.1875,1.1875 -0.65625,0 -1.09375,-0.53125 -1.765625,-1.34375 z M 3.671875,-1.359375 C 3.40625,-0.90625 2.796875,-0.1875 1.9375,-0.1875 c -0.71875,0 -1.203125,-0.640625 -1.203125,-1.3125 0,-0.671875 0.546875,-1.1875 1.1875,-1.1875 0.640625,0 1.09375,0.53125 1.75,1.328125 z m 0,0"
           id="path13-0" />
      </g>
      <g
         id="glyph-5-0-4">
        <path
           d="m 7.546875,29.390625 c 0,-0.01563 0,-0.04687 -0.0625,-0.109375 C 6.53125,28.125 5.734375,26.84375 5.140625,25.453125 3.84375,22.40625 3.3125,18.84375 3.3125,14.546875 3.3125,10.3125 3.8125,6.578125 5.28125,3.3125 5.859375,2.046875 6.625,0.875 7.5,-0.203125 c 0.03125,-0.03125 0.046875,-0.0625 0.046875,-0.09375 0,-0.109375 -0.0625,-0.109375 -0.21875,-0.109375 -0.15625,0 -0.171875,0 -0.1875,0.03125 -0.015625,0 -0.625,0.609375 -1.40625,1.703125 C 4,3.78125 3.125,6.703125 2.671875,9.671875 c -0.234375,1.609375 -0.3125,3.25 -0.3125,4.875 0,3.71875 0.46875,7.53125 2.0625,10.9375 C 5.125,27 6.078125,28.375 7.0625,29.40625 7.140625,29.484375 7.15625,29.5 7.328125,29.5 c 0.15625,0 0.21875,0 0.21875,-0.109375 z m 0,0"
           id="path14" />
      </g>
      <g
         id="glyph-5-1-8">
        <path
           d="m 12.625,13.953125 1.203125,-3.1875 h -0.25 c -0.390625,1.03125 -1.453125,1.71875 -2.59375,2.015625 -0.203125,0.04687 -1.1875,0.3125 -3.09375,0.3125 H 1.875 L 6.953125,7.140625 C 7.015625,7.0625 7.03125,7.03125 7.03125,6.984375 c 0,-0.03125 0,-0.0625 -0.0625,-0.15625 L 2.328125,0.484375 H 7.78125 c 1.34375,0 2.25,0.140625 2.34375,0.15625 0.53125,0.078125 1.40625,0.25 2.1875,0.75 0.25,0.15625 0.921875,0.609375 1.265625,1.40625 h 0.25 L 12.625,0 H 0.84375 c -0.234375,0 -0.25,0.015625 -0.28125,0.0625 0,0.03125 0,0.234375 0,0.34375 l 5.265625,7.203125 -5.15625,6.0625 C 0.5625,13.78125 0.5625,13.84375 0.5625,13.84375 c 0,0.109375 0.09375,0.109375 0.28125,0.109375 z m 0,0"
           id="path15" />
      </g>
      <g
         id="glyph-5-2">
        <path
           d="m 5.53125,14.546875 c 0,-3.71875 -0.46875,-7.53125 -2.0625,-10.9375 C 2.765625,2.09375 1.8125,0.734375 0.828125,-0.3125 0.734375,-0.390625 0.734375,-0.40625 0.5625,-0.40625 c -0.140625,0 -0.21875,0 -0.21875,0.109375 0,0.03125 0.03125,0.09375 0.0625,0.125 0.953125,1.15625 1.75,2.421875 2.328125,3.8125 1.3125,3.046875 1.828125,6.625 1.828125,10.90625 0,4.25 -0.484375,7.96875 -1.953125,11.25 C 2.03125,27.0625 1.265625,28.234375 0.375,29.3125 c 0,0.01563 -0.03125,0.0625 -0.03125,0.07813 C 0.34375,29.5 0.421875,29.5 0.5625,29.5 c 0.140625,0 0.171875,0 0.1875,-0.01563 0,-0.01563 0.625,-0.609375 1.40625,-1.71875 1.734375,-2.4375 2.609375,-5.375 3.0625,-8.34375 0.234375,-1.609375 0.3125,-3.25 0.3125,-4.875 z m 0,0"
           id="path16" />
      </g>
      <g
         id="glyph-6-0">
        <path
           d="m 5.359375,-2.34375 c 0.09375,0 0.25,0 0.25,-0.171875 0,-0.171875 -0.15625,-0.171875 -0.25,-0.171875 H 0.75 c -0.09375,0 -0.265625,0 -0.265625,0.171875 0,0.171875 0.15625,0.171875 0.265625,0.171875 z m 0,1.53125 c 0.09375,0 0.25,0 0.25,-0.15625 0,-0.1875 -0.15625,-0.1875 -0.25,-0.1875 H 0.75 c -0.109375,0 -0.265625,0 -0.265625,0.1875 0,0.15625 0.171875,0.15625 0.265625,0.15625 z m 0,0"
           id="path17" />
      </g>
      <g
         id="glyph-6-1">
        <path
           d="m 2.328125,-4.4375 c 0,-0.1875 0,-0.1875 -0.203125,-0.1875 -0.453125,0.4375 -1.078125,0.4375 -1.359375,0.4375 v 0.25 c 0.15625,0 0.625,0 1,-0.1875 v 3.546875 c 0,0.234375 0,0.328125 -0.6875,0.328125 H 0.8125 V 0 c 0.125,0 0.984375,-0.03125 1.234375,-0.03125 0.21875,0 1.09375,0.03125 1.25,0.03125 V -0.25 H 3.03125 c -0.703125,0 -0.703125,-0.09375 -0.703125,-0.328125 z m 0,0"
           id="path18" />
      </g>
    </g>
    <g
       id="g19">
      <g
         id="glyph-0-0-5">
        <path
           d="m 1.71875,-7.140625 c 0,-0.15625 0,-0.34375 -0.203125,-0.34375 -0.203125,0 -0.203125,0.234375 -0.203125,0.375 V 2.125 c 0,0.15625 0,0.375 0.203125,0.375 C 1.71875,2.5 1.71875,2.3125 1.71875,2.15625 Z m 1.9375,0.03125 c 0,-0.15625 0,-0.375 -0.203125,-0.375 -0.1875,0 -0.1875,0.1875 -0.1875,0.34375 V 2.15625 c 0,0.15625 0,0.34375 0.1875,0.34375 C 3.65625,2.5 3.65625,2.265625 3.65625,2.125 Z m 0,0"
           id="path1-5" />
      </g>
      <g
         id="glyph-0-1-85">
        <path
           d="m 1.578125,-7.125 c 0,-0.171875 0,-0.359375 -0.1875,-0.359375 -0.203125,0 -0.203125,0.1875 -0.203125,0.359375 v 9.265625 c 0,0.171875 0,0.359375 0.203125,0.359375 0.1875,0 0.1875,-0.1875 0.1875,-0.359375 z m 0,0"
           id="path2-6" />
      </g>
      <g
         id="glyph-1-0-7">
        <path
           d="M 3.328125,-3.015625 C 3.390625,-3.265625 3.625,-4.1875 4.3125,-4.1875 c 0.046875,0 0.296875,0 0.5,0.125 C 4.53125,-4 4.34375,-3.765625 4.34375,-3.515625 c 0,0.15625 0.109375,0.34375 0.375,0.34375 0.21875,0 0.53125,-0.171875 0.53125,-0.578125 0,-0.515625 -0.578125,-0.65625 -0.921875,-0.65625 -0.578125,0 -0.921875,0.53125 -1.046875,0.75 -0.25,-0.65625 -0.78125,-0.75 -1.078125,-0.75 -1.03125,0 -1.609375,1.28125 -1.609375,1.53125 0,0.109375 0.109375,0.109375 0.125,0.109375 0.078125,0 0.109375,-0.03125 0.125,-0.109375 0.34375,-1.0625 1,-1.3125 1.34375,-1.3125 0.1875,0 0.53125,0.09375 0.53125,0.671875 0,0.3125 -0.171875,0.96875 -0.53125,2.375 -0.15625,0.609375 -0.515625,1.03125 -0.953125,1.03125 -0.0625,0 -0.28125,0 -0.5,-0.125 0.25,-0.0625 0.46875,-0.265625 0.46875,-0.546875 0,-0.265625 -0.21875,-0.34375 -0.359375,-0.34375 -0.3125,0 -0.546875,0.25 -0.546875,0.578125 0,0.453125 0.484375,0.65625 0.921875,0.65625 0.671875,0 1.03125,-0.703125 1.046875,-0.75 0.125,0.359375 0.484375,0.75 1.078125,0.75 1.03125,0 1.59375,-1.28125 1.59375,-1.53125 0,-0.109375 -0.078125,-0.109375 -0.109375,-0.109375 -0.09375,0 -0.109375,0.046875 -0.140625,0.109375 -0.328125,1.078125 -1,1.3125 -1.3125,1.3125 -0.390625,0 -0.546875,-0.3125 -0.546875,-0.65625 0,-0.21875 0.046875,-0.4375 0.15625,-0.875 z m 0,0"
           id="path3-9" />
      </g>
      <g
         id="glyph-2-0-41">
        <path
           d="m 0.515625,0.84375 c -0.046875,0.203125 -0.0625,0.25 -0.328125,0.25 -0.09375,0 -0.1875,0 -0.1875,0.15625 0,0.078125 0.0625,0.109375 0.09375,0.109375 0.171875,0 0.40625,-0.03125 0.59375,-0.03125 0.234375,0 0.5,0.03125 0.734375,0.03125 0.0625,0 0.140625,-0.03125 0.140625,-0.15625 0,-0.109375 -0.09375,-0.109375 -0.1875,-0.109375 -0.15625,0 -0.34375,0 -0.34375,-0.078125 0,-0.03125 0.0625,-0.21875 0.078125,-0.3125 0.09375,-0.375 0.1875,-0.75 0.265625,-1.046875 0.078125,0.140625 0.296875,0.40625 0.71875,0.40625 0.84375,0 1.78125,-0.9375 1.78125,-1.96875 0,-0.8125 -0.5625,-1.171875 -1.03125,-1.171875 -0.4375,0 -0.8125,0.296875 -1,0.5 -0.109375,-0.40625 -0.5,-0.5 -0.71875,-0.5 -0.265625,0 -0.4375,0.1875 -0.546875,0.375 -0.140625,0.234375 -0.25,0.65625 -0.25,0.703125 0,0.078125 0.09375,0.078125 0.125,0.078125 0.09375,0 0.09375,-0.015625 0.140625,-0.203125 0.109375,-0.40625 0.25,-0.75 0.515625,-0.75 0.1875,0 0.234375,0.15625 0.234375,0.34375 0,0.078125 -0.015625,0.15625 -0.03125,0.203125 z M 1.84375,-2.234375 C 2.25,-2.78125 2.59375,-2.875 2.8125,-2.875 c 0.28125,0 0.515625,0.203125 0.515625,0.671875 0,0.28125 -0.15625,1 -0.359375,1.40625 -0.1875,0.34375 -0.515625,0.671875 -0.875,0.671875 -0.5,0 -0.625,-0.53125 -0.625,-0.609375 0,-0.03125 0.015625,-0.078125 0.015625,-0.109375 z m 0,0"
           id="path4-6" />
      </g>
      <g
         id="glyph-2-1-1">
        <path
           d="m 0.84375,-0.4375 c -0.015625,0.09375 -0.0625,0.265625 -0.0625,0.28125 0,0.15625 0.125,0.21875 0.234375,0.21875 0.125,0 0.234375,-0.078125 0.28125,-0.140625 0.03125,-0.0625 0.078125,-0.296875 0.125,-0.4375 0.03125,-0.125 0.109375,-0.453125 0.140625,-0.625 0.046875,-0.15625 0.09375,-0.3125 0.125,-0.46875 0.078125,-0.28125 0.09375,-0.34375 0.296875,-0.625 C 2.171875,-2.515625 2.5,-2.875 3.03125,-2.875 c 0.390625,0 0.40625,0.359375 0.40625,0.484375 0,0.421875 -0.296875,1.1875 -0.40625,1.484375 -0.078125,0.203125 -0.109375,0.265625 -0.109375,0.375 0,0.375 0.296875,0.59375 0.65625,0.59375 0.703125,0 1,-0.953125 1,-1.0625 0,-0.09375 -0.078125,-0.09375 -0.109375,-0.09375 -0.09375,0 -0.09375,0.046875 -0.125,0.125 C 4.1875,-0.40625 3.875,-0.125 3.609375,-0.125 c -0.15625,0 -0.1875,-0.09375 -0.1875,-0.25 0,-0.15625 0.046875,-0.25 0.171875,-0.5625 0.078125,-0.21875 0.359375,-0.953125 0.359375,-1.34375 0,-0.671875 -0.53125,-0.796875 -0.90625,-0.796875 -0.578125,0 -0.96875,0.359375 -1.171875,0.640625 -0.046875,-0.484375 -0.453125,-0.640625 -0.75,-0.640625 -0.296875,0 -0.453125,0.21875 -0.546875,0.375 -0.15625,0.265625 -0.25,0.65625 -0.25,0.703125 0,0.078125 0.09375,0.078125 0.125,0.078125 0.09375,0 0.09375,-0.015625 0.140625,-0.203125 0.109375,-0.40625 0.25,-0.75 0.515625,-0.75 0.1875,0 0.234375,0.15625 0.234375,0.34375 0,0.125 -0.0625,0.390625 -0.125,0.578125 -0.046875,0.1875 -0.109375,0.46875 -0.140625,0.625 z m 0,0"
           id="path5-2" />
      </g>
      <g
         id="glyph-2-2-0">
        <path
           d="m 2.265625,-4.359375 c 0,-0.109375 -0.09375,-0.265625 -0.28125,-0.265625 -0.1875,0 -0.390625,0.1875 -0.390625,0.390625 0,0.109375 0.078125,0.265625 0.28125,0.265625 0.1875,0 0.390625,-0.203125 0.390625,-0.390625 z M 0.84375,-0.8125 c -0.03125,0.09375 -0.0625,0.171875 -0.0625,0.296875 0,0.328125 0.265625,0.578125 0.65625,0.578125 0.6875,0 1,-0.953125 1,-1.0625 0,-0.09375 -0.09375,-0.09375 -0.109375,-0.09375 -0.09375,0 -0.109375,0.046875 -0.140625,0.125 -0.15625,0.5625 -0.453125,0.84375 -0.734375,0.84375 -0.140625,0 -0.171875,-0.09375 -0.171875,-0.25 0,-0.15625 0.046875,-0.28125 0.109375,-0.4375 C 1.46875,-1 1.546875,-1.1875 1.609375,-1.375 1.671875,-1.546875 1.9375,-2.171875 1.953125,-2.265625 1.984375,-2.328125 2,-2.40625 2,-2.484375 2,-2.8125 1.71875,-3.078125 1.34375,-3.078125 0.640625,-3.078125 0.328125,-2.125 0.328125,-2 c 0,0.078125 0.09375,0.078125 0.125,0.078125 0.09375,0 0.09375,-0.03125 0.125,-0.109375 C 0.75,-2.625 1.0625,-2.875 1.3125,-2.875 c 0.109375,0 0.171875,0.046875 0.171875,0.234375 0,0.171875 -0.03125,0.265625 -0.203125,0.703125 z m 0,0"
           id="path6-4" />
      </g>
      <g
         id="glyph-3-0-4">
        <path
           d="m 6.84375,-3.265625 c 0.15625,0 0.34375,0 0.34375,-0.1875 C 7.1875,-3.65625 7,-3.65625 6.859375,-3.65625 h -5.96875 c -0.140625,0 -0.328125,0 -0.328125,0.203125 0,0.1875 0.1875,0.1875 0.328125,0.1875 z m 0.015625,1.9375 c 0.140625,0 0.328125,0 0.328125,-0.203125 0,-0.1875 -0.1875,-0.1875 -0.34375,-0.1875 H 0.890625 c -0.140625,0 -0.328125,0 -0.328125,0.1875 0,0.203125 0.1875,0.203125 0.328125,0.203125 z m 0,0"
           id="path7-59" />
      </g>
      <g
         id="glyph-3-1-7">
        <path
           d="M 1.765625,-6.921875 0.328125,-6.8125 V -6.5 c 0.703125,0 0.78125,0.0625 0.78125,0.5625 V -0.75 c 0,0.4375 -0.109375,0.4375 -0.78125,0.4375 V 0 C 0.65625,-0.015625 1.1875,-0.03125 1.4375,-0.03125 c 0.25,0 0.734375,0.015625 1.109375,0.03125 v -0.3125 c -0.671875,0 -0.78125,0 -0.78125,-0.4375 z m 0,0"
           id="path8-5" />
      </g>
      <g
         id="glyph-3-2-3">
        <path
           d="M 1.765625,-4.40625 0.375,-4.296875 v 0.3125 c 0.640625,0 0.734375,0.0625 0.734375,0.546875 V -0.75 c 0,0.4375 -0.109375,0.4375 -0.78125,0.4375 V 0 C 0.640625,-0.015625 1.1875,-0.03125 1.421875,-0.03125 1.78125,-0.03125 2.125,-0.015625 2.46875,0 v -0.3125 c -0.671875,0 -0.703125,-0.046875 -0.703125,-0.4375 z m 0.03125,-1.734375 c 0,-0.3125 -0.234375,-0.53125 -0.515625,-0.53125 -0.3125,0 -0.53125,0.265625 -0.53125,0.53125 0,0.265625 0.21875,0.53125 0.53125,0.53125 0.28125,0 0.515625,-0.21875 0.515625,-0.53125 z m 0,0"
           id="path9-90" />
      </g>
      <g
         id="glyph-3-3-5">
        <path
           d="M 1.09375,-3.421875 V -0.75 c 0,0.4375 -0.109375,0.4375 -0.78125,0.4375 V 0 c 0.359375,-0.015625 0.859375,-0.03125 1.140625,-0.03125 0.25,0 0.765625,0.015625 1.109375,0.03125 v -0.3125 c -0.671875,0 -0.78125,0 -0.78125,-0.4375 V -2.59375 C 1.78125,-3.625 2.5,-4.1875 3.125,-4.1875 c 0.640625,0 0.75,0.53125 0.75,1.109375 V -0.75 c 0,0.4375 -0.109375,0.4375 -0.78125,0.4375 V 0 c 0.34375,-0.015625 0.859375,-0.03125 1.125,-0.03125 0.25,0 0.78125,0.015625 1.109375,0.03125 v -0.3125 c -0.65625,0 -0.765625,0 -0.765625,-0.4375 v -1.84375 c 0,-1.03125 0.703125,-1.59375 1.34375,-1.59375 0.625,0 0.734375,0.53125 0.734375,1.109375 V -0.75 c 0,0.4375 -0.109375,0.4375 -0.78125,0.4375 V 0 c 0.34375,-0.015625 0.859375,-0.03125 1.125,-0.03125 0.265625,0 0.78125,0.015625 1.125,0.03125 v -0.3125 c -0.515625,0 -0.765625,0 -0.78125,-0.296875 v -1.90625 c 0,-0.859375 0,-1.15625 -0.3125,-1.515625 -0.140625,-0.171875 -0.46875,-0.375 -1.046875,-0.375 -0.828125,0 -1.28125,0.59375 -1.4375,0.984375 C 4.390625,-4.296875 3.65625,-4.40625 3.203125,-4.40625 2.46875,-4.40625 2,-3.984375 1.71875,-3.359375 V -4.40625 L 0.3125,-4.296875 v 0.3125 c 0.703125,0 0.78125,0.0625 0.78125,0.5625 z m 0,0"
           id="path10-5" />
      </g>
      <g
         id="glyph-4-0-63">
        <path
           d="m 6.40625,-1.578125 c -0.875,0.640625 -0.984375,1.5625 -0.984375,1.5625 0,0.109375 0.0625,0.109375 0.15625,0.109375 0.125,0 0.15625,0 0.1875,-0.125 0.046875,-0.171875 0.15625,-0.609375 0.515625,-1 0.40625,-0.421875 0.75,-0.53125 1.046875,-0.625 0.03125,-0.015625 0.0625,-0.046875 0.0625,-0.078125 0,-0.078125 -0.03125,-0.09375 -0.125,-0.125 C 6.265625,-2.171875 5.90625,-2.890625 5.75,-3.5 5.734375,-3.578125 5.671875,-3.578125 5.578125,-3.578125 c -0.09375,0 -0.15625,0 -0.15625,0.09375 0,0.015625 0.0625,0.484375 0.40625,0.96875 0.15625,0.234375 0.359375,0.4375 0.578125,0.59375 H 0.8125 c -0.109375,0 -0.28125,0 -0.28125,0.171875 0,0.171875 0.171875,0.171875 0.28125,0.171875 z m 0,0"
           id="path11-2" />
      </g>
      <g
         id="glyph-4-1-6">
        <path
           d="m 4.03125,-1.90625 c -0.375,-0.4375 -0.484375,-0.546875 -0.75,-0.734375 -0.421875,-0.3125 -0.875,-0.4375 -1.25,-0.4375 -0.875,0 -1.5,0.75 -1.5,1.578125 0,0.8125 0.609375,1.5625 1.46875,1.5625 0.96875,0 1.65625,-0.78125 1.90625,-1.15625 0.359375,0.4375 0.484375,0.546875 0.734375,0.734375 0.4375,0.3125 0.875,0.421875 1.265625,0.421875 0.859375,0 1.484375,-0.734375 1.484375,-1.5625 0,-0.828125 -0.59375,-1.578125 -1.46875,-1.578125 -0.96875,0 -1.640625,0.796875 -1.890625,1.171875 z m 0.21875,0.25 c 0.28125,-0.453125 0.890625,-1.15625 1.734375,-1.15625 0.71875,0 1.21875,0.640625 1.21875,1.3125 0,0.65625 -0.546875,1.1875 -1.1875,1.1875 -0.65625,0 -1.09375,-0.53125 -1.765625,-1.34375 z M 3.671875,-1.359375 C 3.40625,-0.90625 2.796875,-0.1875 1.9375,-0.1875 c -0.71875,0 -1.203125,-0.640625 -1.203125,-1.3125 0,-0.671875 0.546875,-1.1875 1.1875,-1.1875 0.640625,0 1.09375,0.53125 1.75,1.328125 z m 0,0"
           id="path12-8" />
      </g>
      <g
         id="glyph-5-0-9">
        <path
           d="m 7.546875,29.390625 c 0,-0.01563 0,-0.04687 -0.0625,-0.109375 C 6.53125,28.125 5.734375,26.84375 5.140625,25.453125 3.84375,22.40625 3.3125,18.84375 3.3125,14.546875 3.3125,10.3125 3.8125,6.578125 5.28125,3.3125 5.859375,2.046875 6.625,0.875 7.5,-0.203125 c 0.03125,-0.03125 0.046875,-0.0625 0.046875,-0.09375 0,-0.109375 -0.0625,-0.109375 -0.21875,-0.109375 -0.15625,0 -0.171875,0 -0.1875,0.03125 -0.015625,0 -0.625,0.609375 -1.40625,1.703125 C 4,3.78125 3.125,6.703125 2.671875,9.671875 c -0.234375,1.609375 -0.3125,3.25 -0.3125,4.875 0,3.71875 0.46875,7.53125 2.0625,10.9375 C 5.125,27 6.078125,28.375 7.0625,29.40625 7.140625,29.484375 7.15625,29.5 7.328125,29.5 c 0.15625,0 0.21875,0 0.21875,-0.109375 z m 0,0"
           id="path13-1" />
      </g>
      <g
         id="glyph-5-1-4">
        <path
           d="m 12.625,13.953125 1.203125,-3.1875 h -0.25 c -0.390625,1.03125 -1.453125,1.71875 -2.59375,2.015625 -0.203125,0.04687 -1.1875,0.3125 -3.09375,0.3125 H 1.875 L 6.953125,7.140625 C 7.015625,7.0625 7.03125,7.03125 7.03125,6.984375 c 0,-0.03125 0,-0.0625 -0.0625,-0.15625 L 2.328125,0.484375 H 7.78125 c 1.34375,0 2.25,0.140625 2.34375,0.15625 0.53125,0.078125 1.40625,0.25 2.1875,0.75 0.25,0.15625 0.921875,0.609375 1.265625,1.40625 h 0.25 L 12.625,0 H 0.84375 c -0.234375,0 -0.25,0.015625 -0.28125,0.0625 0,0.03125 0,0.234375 0,0.34375 l 5.265625,7.203125 -5.15625,6.0625 C 0.5625,13.78125 0.5625,13.84375 0.5625,13.84375 c 0,0.109375 0.09375,0.109375 0.28125,0.109375 z m 0,0"
           id="path14-8" />
      </g>
      <g
         id="glyph-5-2-8">
        <path
           d="m 5.53125,14.546875 c 0,-3.71875 -0.46875,-7.53125 -2.0625,-10.9375 C 2.765625,2.09375 1.8125,0.734375 0.828125,-0.3125 0.734375,-0.390625 0.734375,-0.40625 0.5625,-0.40625 c -0.140625,0 -0.21875,0 -0.21875,0.109375 0,0.03125 0.03125,0.09375 0.0625,0.125 0.953125,1.15625 1.75,2.421875 2.328125,3.8125 1.3125,3.046875 1.828125,6.625 1.828125,10.90625 0,4.25 -0.484375,7.96875 -1.953125,11.25 C 2.03125,27.0625 1.265625,28.234375 0.375,29.3125 c 0,0.01563 -0.03125,0.0625 -0.03125,0.07813 C 0.34375,29.5 0.421875,29.5 0.5625,29.5 c 0.140625,0 0.171875,0 0.1875,-0.01563 0,-0.01563 0.625,-0.609375 1.40625,-1.71875 1.734375,-2.4375 2.609375,-5.375 3.0625,-8.34375 0.234375,-1.609375 0.3125,-3.25 0.3125,-4.875 z m 0,0"
           id="path15-7" />
      </g>
      <g
         id="glyph-6-0-1">
        <path
           d="m 5.359375,-2.34375 c 0.09375,0 0.25,0 0.25,-0.171875 0,-0.171875 -0.15625,-0.171875 -0.25,-0.171875 H 0.75 c -0.09375,0 -0.265625,0 -0.265625,0.171875 0,0.171875 0.15625,0.171875 0.265625,0.171875 z m 0,1.53125 c 0.09375,0 0.25,0 0.25,-0.15625 0,-0.1875 -0.15625,-0.1875 -0.25,-0.1875 H 0.75 c -0.109375,0 -0.265625,0 -0.265625,0.1875 0,0.15625 0.171875,0.15625 0.265625,0.15625 z m 0,0"
           id="path16-9" />
      </g>
      <g
         id="glyph-6-1-3">
        <path
           d="m 2.328125,-4.4375 c 0,-0.1875 0,-0.1875 -0.203125,-0.1875 -0.453125,0.4375 -1.078125,0.4375 -1.359375,0.4375 v 0.25 c 0.15625,0 0.625,0 1,-0.1875 v 3.546875 c 0,0.234375 0,0.328125 -0.6875,0.328125 H 0.8125 V 0 c 0.125,0 0.984375,-0.03125 1.234375,-0.03125 0.21875,0 1.09375,0.03125 1.25,0.03125 V -0.25 H 3.03125 c -0.703125,0 -0.703125,-0.09375 -0.703125,-0.328125 z m 0,0"
           id="path17-1" />
      </g>
      <g
         id="glyph-7-0">
        <path
           d="M 1.984375,-3.171875 C 1.984375,-3.3125 1.96875,-3.3125 1.796875,-3.3125 1.453125,-3 0.890625,-3 0.796875,-3 H 0.71875 v 0.21875 h 0.078125 c 0.109375,0 0.4375,-0.015625 0.734375,-0.140625 v 2.5 c 0,0.140625 0,0.203125 -0.53125,0.203125 H 0.75 V 0 c 0.265625,-0.015625 0.71875,-0.015625 1,-0.015625 0.296875,0 0.734375,0 1.015625,0.015625 v -0.21875 h -0.25 c -0.53125,0 -0.53125,-0.0625 -0.53125,-0.203125 z m 0,0"
           id="path18-1" />
      </g>
      <g
         id="glyph-8-0">
        <path
           d="M 0.703125,0.578125 C 0.65625,0.71875 0.65625,0.75 0.4375,0.75 c -0.078125,0 -0.15625,0 -0.15625,0.125 0,0.0625 0.03125,0.09375 0.078125,0.09375 0.0625,0 0.15625,-0.015625 0.234375,-0.015625 0.078125,0 0.171875,0 0.25,0 0.109375,0 0.203125,0 0.296875,0 0.078125,0 0.1875,0.015625 0.28125,0.015625 0.0625,0 0.125,-0.03125 0.125,-0.140625 C 1.546875,0.75 1.453125,0.75 1.390625,0.75 c -0.171875,0 -0.28125,0 -0.28125,-0.0625 0,-0.03125 0.078125,-0.34375 0.234375,-0.9375 0.125,0.171875 0.328125,0.3125 0.59375,0.3125 0.703125,0 1.40625,-0.703125 1.40625,-1.390625 0,-0.5 -0.375,-0.875 -0.875,-0.875 -0.390625,0 -0.6875,0.25 -0.796875,0.34375 C 1.578125,-2.125 1.28125,-2.203125 1.09375,-2.203125 c -0.171875,0 -0.328125,0.078125 -0.453125,0.28125 -0.125,0.203125 -0.1875,0.46875 -0.1875,0.484375 0,0.078125 0.078125,0.078125 0.109375,0.078125 0.078125,0 0.09375,-0.03125 0.109375,-0.109375 0.0625,-0.203125 0.15625,-0.5625 0.390625,-0.5625 0.171875,0 0.203125,0.15625 0.203125,0.265625 0,0.0625 0,0.078125 -0.015625,0.125 z m 0.953125,-2.0625 c 0.015625,-0.078125 0.015625,-0.09375 0.109375,-0.1875 0.1875,-0.21875 0.453125,-0.359375 0.6875,-0.359375 0.203125,0 0.4375,0.125 0.4375,0.5 0,0.21875 -0.109375,0.703125 -0.25,0.9375 -0.21875,0.375 -0.515625,0.484375 -0.703125,0.484375 -0.40625,0 -0.515625,-0.40625 -0.515625,-0.453125 0,-0.015625 0.015625,-0.046875 0.015625,-0.078125 z m 0,0"
           id="path19" />
      </g>
    </g>
    <g
       id="g4">
      <g
         id="glyph-0-0-4">
        <path
           d="M 1.59375,-0.78125 C 1.5,-0.390625 1.46875,-0.3125 0.6875,-0.3125 c -0.171875,0 -0.265625,0 -0.265625,0.203125 C 0.421875,0 0.515625,0 0.6875,0 H 4.25 C 5.828125,0 7,-1.171875 7,-2.15625 7,-2.875 6.421875,-3.453125 5.453125,-3.5625 6.484375,-3.75 7.53125,-4.484375 7.53125,-5.4375 c 0,-0.734375 -0.65625,-1.375 -1.84375,-1.375 H 2.328125 c -0.1875,0 -0.28125,0 -0.28125,0.203125 0,0.109375 0.09375,0.109375 0.28125,0.109375 0.015625,0 0.203125,0 0.375,0.015625 0.171875,0.03125 0.265625,0.03125 0.265625,0.171875 0,0.03125 -0.015625,0.0625 -0.03125,0.1875 z m 1.5,-2.875 0.625,-2.46875 C 3.8125,-6.46875 3.828125,-6.5 4.25,-6.5 h 1.296875 c 0.875,0 1.078125,0.59375 1.078125,1.03125 0,0.875 -0.859375,1.8125 -2.0625,1.8125 z m -0.4375,3.34375 c -0.140625,0 -0.15625,0 -0.21875,0 -0.109375,-0.015625 -0.140625,-0.03125 -0.140625,-0.109375 0,-0.03125 0,-0.046875 0.0625,-0.21875 l 0.6875,-2.78125 h 1.875 c 0.953125,0 1.15625,0.734375 1.15625,1.15625 C 6.078125,-1.28125 5.1875,-0.3125 4,-0.3125 Z m 0,0"
           id="path1-2" />
      </g>
      <g
         id="glyph-1-0-3">
        <path
           d="M 0.828125,-0.953125 C 0.90625,-0.5 1.125,0.078125 1.71875,0.078125 1.9375,0.078125 2.1875,0 2.453125,-0.171875 2.5625,-0.234375 2.921875,-0.5 2.921875,-0.578125 c 0,-0.046875 -0.046875,-0.125 -0.109375,-0.125 -0.03125,0 -0.046875,0 -0.15625,0.09375 -0.296875,0.265625 -0.609375,0.5 -0.921875,0.5 C 1.25,-0.109375 1.25,-0.921875 1.25,-1.0625 c 0,-0.09375 0,-0.09375 0.015625,-0.234375 0.015625,-0.0625 0.015625,-0.078125 0.09375,-0.15625 0.375,-0.359375 1.703125,-1.640625 1.703125,-2.84375 0,-0.109375 0,-0.609375 -0.46875,-0.609375 C 2.015625,-4.90625 1.546875,-4 1.4375,-3.796875 1.140625,-3.203125 0.96875,-2.640625 0.90625,-2.28125 0.796875,-1.8125 0.796875,-1.578125 0.796875,-1.234375 0.75,-1.1875 0.34375,-0.828125 0.28125,-0.78125 c -0.109375,0.109375 -0.125,0.109375 -0.125,0.15625 0,0.046875 0.0625,0.125 0.125,0.125 0.046875,0 0.234375,-0.171875 0.28125,-0.21875 z m 0.5,-0.796875 C 1.453125,-2.453125 2,-4.703125 2.59375,-4.703125 c 0.15625,0 0.25,0.109375 0.25,0.359375 0,0.078125 0,0.703125 -0.609375,1.5625 C 1.875,-2.28125 1.5,-1.90625 1.328125,-1.75 Z m 0,0"
           id="path2-3" />
      </g>
      <g
         id="glyph-2-0-7">
        <path
           d="M 2.9375,-0.96875 H 2.71875 c 0,0.09375 -0.0625,0.40625 -0.140625,0.453125 -0.03125,0.03125 -0.453125,0.03125 -0.53125,0.03125 H 1.078125 C 1.40625,-0.71875 1.765625,-1 2.0625,-1.203125 c 0.453125,-0.3125 0.875,-0.59375 0.875,-1.125 0,-0.640625 -0.609375,-0.984375 -1.3125,-0.984375 -0.671875,0 -1.171875,0.375 -1.171875,0.875 0,0.25 0.21875,0.296875 0.296875,0.296875 0.125,0 0.28125,-0.09375 0.28125,-0.296875 0,-0.171875 -0.125,-0.28125 -0.28125,-0.28125 0.140625,-0.234375 0.4375,-0.375 0.765625,-0.375 0.484375,0 0.890625,0.28125 0.890625,0.765625 0,0.421875 -0.296875,0.75 -0.671875,1.0625 l -1.21875,1.03125 C 0.46875,-0.1875 0.453125,-0.1875 0.453125,-0.15625 V 0 h 2.3125 z m 0,0"
           id="path3-0" />
      </g>
      <g
         id="glyph-2-1-0">
        <path
           d="M 1.984375,-3.171875 C 1.984375,-3.3125 1.96875,-3.3125 1.796875,-3.3125 1.453125,-3 0.890625,-3 0.796875,-3 H 0.71875 v 0.21875 h 0.078125 c 0.109375,0 0.4375,-0.015625 0.734375,-0.140625 v 2.5 c 0,0.140625 0,0.203125 -0.53125,0.203125 H 0.75 V 0 c 0.265625,-0.015625 0.71875,-0.015625 1,-0.015625 0.296875,0 0.734375,0 1.015625,0.015625 v -0.21875 h -0.25 c -0.53125,0 -0.53125,-0.0625 -0.53125,-0.203125 z m 0,0"
           id="path4-1" />
      </g>
    </g>
  </defs>
  <g
     inkscape:label="Layer 1"
     inkscape:groupmode="layer"
     id="layer1">
    <g
       id="g105"
       transform="matrix(2.8073757,-0.49501609,0.49501609,2.8073757,-307.72402,87.077336)">
      <g
         id="g103"
         transform="translate(4.0682649,-1.474009)">
        <g
           id="g3"
           style="fill:#b3b3b3">
          <use
             xlink:href="#glyph-0-0-5"
             x="1.993"
             y="22.851999"
             id="use19"
             transform="matrix(0.26458333,0,0,0.26458333,121.36292,9.2893885)"
             style="fill:#b3b3b3;fill-opacity:1" />
          <use
             xlink:href="#glyph-1-0-7"
             x="6.9742999"
             y="22.851999"
             id="use20"
             transform="matrix(0.26458333,0,0,0.26458333,121.36292,9.2893885)"
             style="fill:#b3b3b3;fill-opacity:1" />
          <use
             xlink:href="#glyph-0-0-5"
             x="12.667926"
             y="22.851999"
             id="use21"
             transform="matrix(0.26458333,0,0,0.26458333,121.36292,9.2893885)"
             style="fill:#b3b3b3;fill-opacity:1" />
          <use
             xlink:href="#glyph-2-0-41"
             x="17.649"
             y="24.346001"
             id="use22"
             transform="matrix(0.26458333,0,0,0.26458333,121.36292,9.2893885)"
             style="fill:#b3b3b3;fill-opacity:1" />
          <use
             xlink:href="#glyph-3-0-4"
             x="25.021"
             y="22.851999"
             id="use23"
             transform="matrix(0.26458333,0,0,0.26458333,121.36292,9.2893885)"
             style="fill:#b3b3b3;fill-opacity:1" />
          <use
             xlink:href="#glyph-3-1-7"
             x="39.026424"
             y="22.851999"
             id="use24"
             transform="matrix(0.26458333,0,0,0.26458333,121.36292,9.2893885)"
             style="fill:#b3b3b3;fill-opacity:1" />
          <use
             xlink:href="#glyph-3-2-3"
             x="41.794033"
             y="22.851999"
             id="use25"
             transform="matrix(0.26458333,0,0,0.26458333,121.36292,9.2893885)"
             style="fill:#b3b3b3;fill-opacity:1" />
          <use
             xlink:href="#glyph-3-3-5"
             x="44.561646"
             y="22.851999"
             id="use26"
             transform="matrix(0.26458333,0,0,0.26458333,121.36292,9.2893885)"
             style="fill:#b3b3b3;fill-opacity:1" />
          <use
             xlink:href="#glyph-2-1-1"
             x="35.537998"
             y="28.829"
             id="use27"
             transform="matrix(0.26458333,0,0,0.26458333,121.36292,9.2893885)"
             style="fill:#b3b3b3;fill-opacity:1" />
          <use
             xlink:href="#glyph-4-0-63"
             x="40.462898"
             y="28.829"
             id="use28"
             transform="matrix(0.26458333,0,0,0.26458333,121.36292,9.2893885)"
             style="fill:#b3b3b3;fill-opacity:1" />
          <use
             xlink:href="#glyph-4-1-6"
             x="48.405357"
             y="28.829"
             id="use29"
             transform="matrix(0.26458333,0,0,0.26458333,121.36292,9.2893885)"
             style="fill:#b3b3b3;fill-opacity:1" />
          <use
             xlink:href="#glyph-5-0-9"
             x="58.007999"
             y="5.8150001"
             id="use30"
             transform="matrix(0.26458333,0,0,0.26458333,121.36292,9.2893885)"
             style="fill:#b3b3b3;fill-opacity:1" />
          <use
             xlink:href="#glyph-2-1-1"
             x="70.627998"
             y="10.398"
             id="use31"
             transform="matrix(0.26458333,0,0,0.26458333,121.36292,9.2893885)"
             style="fill:#b3b3b3;fill-opacity:1" />
          <use
             xlink:href="#glyph-5-1-4"
             x="65.894997"
             y="13.387"
             id="use32"
             transform="matrix(0.26458333,0,0,0.26458333,121.36292,9.2893885)"
             style="fill:#b3b3b3;fill-opacity:1" />
          <use
             xlink:href="#glyph-2-2-0"
             x="66.637001"
             y="34.605999"
             id="use33"
             transform="matrix(0.26458333,0,0,0.26458333,121.36292,9.2893885)"
             style="fill:#b3b3b3;fill-opacity:1" />
          <use
             xlink:href="#glyph-6-0-1"
             x="69.455811"
             y="34.605999"
             id="use34"
             transform="matrix(0.26458333,0,0,0.26458333,121.36292,9.2893885)"
             style="fill:#b3b3b3;fill-opacity:1" />
          <use
             xlink:href="#glyph-6-1-3"
             x="75.571831"
             y="34.605999"
             id="use35"
             transform="matrix(0.26458333,0,0,0.26458333,121.36292,9.2893885)"
             style="fill:#b3b3b3;fill-opacity:1" />
          <use
             xlink:href="#glyph-0-1-85"
             x="81.945999"
             y="22.851999"
             id="use36"
             transform="matrix(0.26458333,0,0,0.26458333,121.36292,9.2893885)"
             style="fill:#b3b3b3;fill-opacity:1" />
          <use
             xlink:href="#glyph-1-0-7"
             x="84.713608"
             y="22.851999"
             id="use37"
             transform="matrix(0.26458333,0,0,0.26458333,121.36292,9.2893885)"
             style="fill:#b3b3b3;fill-opacity:1" />
          <use
             xlink:href="#glyph-2-2-0"
             x="90.406998"
             y="24.346001"
             id="use38"
             transform="matrix(0.26458333,0,0,0.26458333,121.36292,9.2893885)"
             style="fill:#b3b3b3;fill-opacity:1" />
          <use
             xlink:href="#glyph-0-1-85"
             x="93.723999"
             y="22.851999"
             id="use39"
             transform="matrix(0.26458333,0,0,0.26458333,121.36292,9.2893885)"
             style="fill:#b3b3b3;fill-opacity:1" />
          <use
             xlink:href="#glyph-2-0-41"
             x="96.490997"
             y="18.738001"
             id="use40"
             transform="matrix(0.26458333,0,0,0.26458333,121.36292,9.2893885)"
             style="fill:#b3b3b3;fill-opacity:1" />
          <use
             xlink:href="#glyph-5-2-8"
             x="101.096"
             y="5.8150001"
             id="use41"
             transform="matrix(0.26458333,0,0,0.26458333,121.36292,9.2893885)"
             style="fill:#b3b3b3;fill-opacity:1" />
          <use
             xlink:href="#glyph-7-0"
             x="110.326"
             y="5.2030001"
             id="use42"
             transform="matrix(0.26458333,0,0,0.26458333,121.36292,9.2893885)"
             style="fill:#b3b3b3;fill-opacity:1" />
          <path
             fill="none"
             stroke-width="0.0896937"
             stroke-linecap="butt"
             stroke-linejoin="miter"
             stroke="#000000"
             stroke-opacity="1"
             stroke-miterlimit="10"
             d="m 150.51463,10.913062 h 0.97462"
             id="path42"
             style="fill:#b3b3b3;stroke:#b3b3b3" />
          <use
             xlink:href="#glyph-8-0"
             x="110.179"
             y="10.28"
             id="use43"
             transform="matrix(0.26458333,0,0,0.26458333,121.36292,9.2893885)"
             style="fill:#b3b3b3;fill-opacity:1" />
        </g>
      </g>
    </g>
    <g
       id="g116"
       transform="rotate(20,49.325941,351.82422)">
      <path
         style="font-variation-settings:'wght' 700;fill:#b3b3b3;stroke:#b3b3b3;stroke-width:0.2;stroke-linejoin:round;stroke-dasharray:none;stroke-opacity:1;marker-start:url(#Triangle)"
         d="M 48.614626,15.91342 V 49.66386"
         id="path105" />
      <path
         style="font-variation-settings:'wght' 700;fill:#b3b3b3;stroke:#b3b3b3;stroke-width:0.2;stroke-linejoin:round;stroke-dasharray:none;stroke-opacity:1;marker-end:url(#marker107)"
         d="m 32.701205,33.225823 h 32.52633"
         id="path106" />
      <rect
         style="font-variation-settings:'wght' 700;fill:url(#pattern115);fill-opacity:1;stroke:#b3b3b3;stroke-width:1;stroke-linejoin:round;stroke-dasharray:none;stroke-opacity:1"
         id="rect107"
         width="17.43487"
         height="17.43487"
         x="49.152504"
         y="-19.598965"
         transform="rotate(45)" />
    </g>
    <g
       id="g115"
       style="fill:#b3b3b3"
       transform="matrix(3.8394973,1.3974627,-1.3974627,3.8394973,-69.575016,-98.530725)">
      <use
         xlink:href="#glyph-0-0-4"
         x="1.993"
         y="8.8000002"
         id="use4"
         transform="matrix(0.26458333,0,0,0.26458333,66.300648,11.380391)"
         style="fill:#b3b3b3;fill-opacity:1" />
      <use
         xlink:href="#glyph-1-0-3"
         x="9.5489998"
         y="10.981"
         id="use5"
         transform="matrix(0.26458333,0,0,0.26458333,66.300648,11.380391)"
         style="fill:#b3b3b3;fill-opacity:1" />
      <use
         xlink:href="#glyph-2-0-7"
         x="12.884"
         y="8.5780001"
         id="use6"
         transform="matrix(0.26458333,0,0,0.26458333,66.300648,11.380391)"
         style="fill:#b3b3b3;fill-opacity:1" />
      <use
         xlink:href="#glyph-2-1-0"
         x="12.884"
         y="13.143"
         id="use7"
         transform="matrix(0.26458333,0,0,0.26458333,66.300648,11.380391)"
         style="fill:#b3b3b3;fill-opacity:1" />
    </g>
  </g>
</svg>
