<?xml version="1.0" encoding="UTF-8" standalone="no"?>
<!-- Created with Inkscape (http://www.inkscape.org/) -->

<svg
   width="50.873348mm"
   height="54.128326mm"
   viewBox="0 0 50.873349 54.128327"
   version="1.1"
   id="svg1"
   inkscape:version="1.4.2 (ebf0e940, 2025-05-08)"
   sodipodi:docname="bored.svg"
   xmlns:inkscape="http://www.inkscape.org/namespaces/inkscape"
   xmlns:sodipodi="http://sodipodi.sourceforge.net/DTD/sodipodi-0.dtd"
   xmlns="http://www.w3.org/2000/svg"
   xmlns:svg="http://www.w3.org/2000/svg">
  <sodipodi:namedview
     id="namedview1"
     pagecolor="#1e1e2e"
     bordercolor="#000000"
     borderopacity="0.25"
     inkscape:showpageshadow="2"
     inkscape:pageopacity="0.0"
     inkscape:pagecheckerboard="0"
     inkscape:deskcolor="#d1d1d1"
     inkscape:document-units="mm"
     showguides="false"
     inkscape:zoom="0.70366557"
     inkscape:cx="79.58326"
     inkscape:cy="33.396547"
     inkscape:window-width="1696"
     inkscape:window-height="1026"
     inkscape:window-x="1298"
     inkscape:window-y="48"
     inkscape:window-maximized="0"
     inkscape:current-layer="layer1" />
  <defs
     id="defs1" />
  <g
     inkscape:label="Layer 1"
     inkscape:groupmode="layer"
     id="layer1"
     transform="translate(-72.187471,-44.319939)">
    <path
       style="font-variation-settings:'wght' 700;fill:none;stroke:#bac2de;stroke-width:1;stroke-linejoin:round"
       d="m 89.80934,46.357672 c -0.744082,0.496056 -1.96755,1.21549 -2.629241,1.937334 -0.979493,1.068541 -2.472013,5.288233 -2.214097,6.642296 0.159147,0.835517 0.284559,1.683965 0.553524,2.490859 0.45829,1.374873 1.598179,2.507776 2.629241,3.459528 0.765554,0.706665 2.008905,1.927537 2.906004,2.352479 0.67347,0.319011 1.361215,0.618582 2.075717,0.830286 2.55996,0.758508 6.555666,0.196697 8.856392,-1.107048 2.18551,-1.238459 4.59179,-2.805499 5.53524,-5.258483 0.7237,-1.881616 0.18521,-4.010946 -0.41514,-5.812007 -0.16416,-0.492484 -0.49332,-0.920429 -0.69191,-1.38381 -0.0749,-0.17481 -0.0923,-0.369017 -0.13838,-0.553524 -0.18451,-0.461272 -0.33134,-0.939459 -0.55352,-1.383813 -0.42406,-0.848112 -1.71123,-2.322119 -2.49086,-2.767621 -1.55597,-0.889125 -3.275882,-0.77913 -4.981722,-0.968669 -0.889627,-0.09885 -4.298026,0.445283 -5.1201,0.691906 -0.1593,0.04779 -0.258845,0.219927 -0.415145,0.276763 -0.35747,0.129989 -0.750892,0.143203 -1.107048,0.276762 -0.04319,0.01619 0,0.09225 0,0.138382 -0.276762,0.13838 -0.521769,0.391411 -0.830286,0.415142 -0.334823,0.02574 -0.645779,-0.184507 -0.968669,-0.276762 z"
       id="path1" />
    <path
       style="font-variation-settings:'wght' 700;fill:none;stroke:#bac2de;stroke-width:1;stroke-linejoin:round"
       d="m 94.79106,59.78064 c -0.04613,-0.276762 0.138383,-0.876414 -0.138379,-0.830286 -0.276765,0.04613 -0.06002,1.028687 0.138379,0.830286 0.978565,-0.02069 0.237607,-1.344657 0.691907,-1.798955 0.07293,-0.07293 0.192831,-0.07843 0.276762,-0.138382 1.381398,-0.986713 1.451642,-1.637961 3.044383,-1.107049 0.402283,0.134097 1.096717,1.150409 1.245428,1.522193 0.26368,0.659183 -0.446074,-0.184779 0.13838,0.691907 0.0256,0.03838 0.0923,0 0.13839,0"
       id="path4" />
    <path
       style="font-variation-settings:'wght' 700;fill:none;stroke:#bac2de;stroke-width:1;stroke-linejoin:round"
       d="m 100.46468,51.477772 c 0.0923,0.18451 0.0923,0.645779 0.27677,0.553527 0.18451,-0.09225 -0.48305,-0.553527 -0.27677,-0.553527 0.45431,0 0.81445,0.409863 1.24544,0.553527 0.0438,0.01458 -0.0206,-0.09713 0,-0.138383 0.0526,-0.10519 0.49648,-0.748942 0.27676,-0.968668 -0.13047,-0.130466 -0.3885,-0.08251 -0.55353,0 -0.0413,0.02064 0.04,0.115496 0,0.138382 -0.305,0.174289 -1.06517,0.07737 -0.96867,0.415142 0.34943,1.222986 3.02224,0 0.96867,0 -0.32289,0 -0.64578,0 -0.96867,0 z"
       id="path7" />
    <path
       style="font-variation-settings:'wght' 700;fill:none;stroke:#bac2de;stroke-width:1;stroke-linejoin:round"
       d="m 89.511115,54.095154 c 0.04613,0.184507 -0.04613,0.599652 0.138382,0.553524 0.184507,-0.04613 -0.328567,-0.553524 -0.138382,-0.553524 0.412573,0 0.715647,0.423055 1.107048,0.553524 0.157779,0.05259 0.191196,-0.272531 0.276762,-0.415144 0.118428,-0.197377 0.336063,-0.454666 0.415145,-0.691907 0.141581,-0.424738 -2.608818,-1.228177 -1.798955,0.553527 0.484796,1.066548 1.346774,0.526253 1.522193,0 0.04813,-0.144391 -0.198538,-0.756888 -0.415145,-0.691907 -0.416808,0.125042 -0.738031,0.46127 -1.107048,0.691907 z"
       id="path8" />
    <path
       style="font-variation-settings:'wght' 700;fill:none;stroke:#bac2de;stroke-width:1;stroke-linejoin:round"
       d="m 97.141259,64.718289 c -0.212751,0.0851 -0.72335,0.04255 -0.638249,0.255299 0.0851,0.212749 0.771432,-0.441756 0.638249,-0.255299 -0.332732,0.46582 -0.889677,0.726861 -1.276496,1.148845 -0.154834,0.16891 -0.133858,0.443939 -0.255299,0.638249 -0.442804,0.708485 -0.701622,1.147037 -0.893548,1.914742 -0.184176,0.736711 -0.461732,1.405144 -0.638246,2.170041 -0.06765,0.293166 -0.0325,0.608113 -0.127648,0.893545 -0.06018,0.180523 -0.195125,0.330076 -0.2553,0.510598 -0.215259,0.645777 -0.31002,1.768989 -0.38295,2.425341 -0.01879,0.169158 0.04128,0.345479 0,0.510598 -0.104894,0.419581 -0.255299,0.633254 -0.255299,1.021196 0,0.399651 0.09653,0.890381 0,1.276493 -0.01461,0.05838 -0.100737,0.07383 -0.127648,0.127651 -0.0329,0.06581 -0.02935,0.667597 0.127648,0.510598 0.06216,-0.06215 -0.206314,-0.393332 -0.255299,-0.638249 -0.06135,-0.306758 -0.03179,-0.733615 -0.127648,-1.021194 -0.04851,-0.145544 -0.206785,-0.237408 -0.255299,-0.38295 -0.04037,-0.121097 0,-0.255299 0,-0.382947 -0.0851,-0.297849 -0.140256,-0.605936 -0.255299,-0.893548 -0.151268,-0.378169 -0.541338,-0.63355 -0.638247,-1.021194 -0.319955,-1.279819 -0.577529,-2.638555 -0.765897,-3.957135 -0.05876,-0.411332 -0.202665,-3.116222 -0.127651,-3.191237 0.03009,-0.03009 0.09756,0.03009 0.127651,0 0.08174,-0.08174 -0.06773,-1.922558 -0.127651,-2.042393 -0.237371,-0.474739 -0.689583,-0.878562 -1.021196,-1.276493 -0.06091,-0.07309 -0.06037,-0.188023 -0.127648,-0.255299 -0.09743,-0.09743 -0.908595,-0.217765 -1.021197,-0.255299 C 87.980246,62.387966 86.663349,61.6547 86.291051,61.6547"
       id="path10" />
    <path
       style="font-variation-settings:'wght' 700;fill:none;stroke:#bac2de;stroke-width:1;stroke-linejoin:round"
       d="m 72.760207,77.866186 c 0.883864,-0.374827 1.979091,-0.323646 2.935938,-0.255299 1.73804,0.124145 0.09071,0.112686 1.659443,0.255299 1.829004,0.166272 3.65125,0.478449 5.488927,0.638247 4.002643,0.348056 -0.180602,-0.01895 3.191237,0.12765 1.363059,0.05926 2.721724,0.196035 4.084783,0.2553 5.66529,0.246316 11.323785,-0.156806 16.977385,-0.38295 1.95312,-0.07812 3.92541,0.09958 5.87187,0.255299 0.46848,0.03748 0.93417,0.127651 1.40415,0.127651 1.48653,0 2.98932,-0.27735 4.46773,-0.38295 0.98228,-0.07016 1.95521,0.12765 2.93594,0.12765"
       id="path11" />
    <path
       style="font-variation-settings:'wght' 700;fill:none;stroke:#bac2de;stroke-width:1;stroke-linejoin:round"
       d="m 104.92787,62.165298 c -0.0425,0.170201 -0.29784,0.468048 -0.12764,0.510598 0.1702,0.04255 0.0492,-0.667512 0.12764,-0.510598 0.19406,0.388115 0.15773,0.853683 0.2553,1.276496 0.17751,0.769162 1.1953,3.629697 1.5318,4.340082 0.4257,0.898702 1.15662,1.587304 1.65944,2.42534 0.34073,0.567875 1.04982,2.19489 1.2765,2.680639 0.20892,0.447696 0.42819,1.03737 0.5106,1.531795 0.021,0.125912 -0.0404,0.26185 0,0.382947 0.0485,0.145545 0.20678,0.237405 0.25529,0.38295 0.0538,0.161464 -0.12034,0.390247 0,0.510598 0.0602,0.06017 0.19513,-0.06017 0.2553,0 0.0254,0.02543 0.0358,0.839878 0,0.893546 -0.10555,0.158329 -0.32289,0.224014 -0.51059,0.255299 -0.48957,0.0816 -1.03739,-0.03531 -1.5318,0 -2.27248,0.162319 -0.53738,0.127648 -2.55299,0.127648 -1.84369,0 -3.64283,0.38295 -5.48893,0.38295 -1.020532,0 -1.539295,0.02122 -2.680636,-0.127651 -0.713436,-0.09306 -1.3301,-0.382947 -2.042391,-0.382947"
       id="path12" />
    <path
       style="font-variation-settings:'wght' 700;fill:none;stroke:#bac2de;stroke-width:1;stroke-linejoin:round"
       d="m 73.909051,64.08004 c 0.364715,0.653132 1.014423,1.163542 1.404144,1.787094 0.718937,1.150297 0.989669,2.482053 1.531795,3.701835 0.602429,1.355469 1.25526,2.638169 1.914742,3.957135 0.498398,0.996797 0.859451,1.784181 1.531794,2.680639 1.357973,-0.241476 2.689244,-0.03278 3.957135,0.510598 0.530684,0.227436 1.211807,0.670016 1.787093,0.765897 1.559413,0.259902 -0.883692,-0.464763 1.276494,0.255299"
       id="path13" />
    <path
       style="font-variation-settings:'wght' 700;fill:none;stroke:#bac2de;stroke-width:1;stroke-linejoin:round"
       d="m 98.673051,64.590638 c 0.279252,0.623586 0.786447,1.141534 1.021196,1.787094 0.10586,0.291118 0.140253,0.605935 0.255299,0.893545 0.03443,0.08608 0.356394,0.478939 0.382944,0.638249 0.028,0.167884 -0.0538,0.349131 0,0.510599 0.0381,0.114173 0.1702,0.170198 0.2553,0.255299 0,0.170198 -0.0241,0.342109 0,0.510595 -0.21694,0.345517 0.19513,0.330076 0.2553,0.510599 0.0269,0.08073 -0.0381,0.179183 0,0.255299 0.0538,0.107643 0.20148,0.147656 0.2553,0.255299 0.0381,0.07612 -0.0269,0.174567 0,0.255299 0.019,0.05709 0.0851,0.0851 0.12765,0.127651 0.0426,0.127648 0.095,0.25241 0.12765,0.382947 0.15586,0.623446 0.15983,1.421866 0.2553,2.042393 0.12094,0.786114 0.26975,1.505278 0.38295,2.297689 0.06,0.420211 -0.27338,2.133886 -0.12765,2.42534 0.15774,0.315474 0.12765,-0.04406 0.12765,0.255299"
       id="path14" />
    <path
       style="font-variation-settings:'wght' 700;fill:none;stroke:#bac2de;stroke-width:1;stroke-linejoin:round"
       d="m 73.143154,77.738535 c -0.349935,1.196007 0.109958,2.36464 0,3.574188 -0.373446,4.10791 -0.666702,8.778565 -0.255299,12.892598 0.01746,0.174566 0.108275,0.336232 0.127651,0.510595 0.106336,0.957022 -0.158221,1.986627 0,2.935939 0.01979,0.118713 0.147656,0.201477 0.255299,0.255299 0.114173,0.05709 0.259109,0.03096 0.382947,0 0.302117,-0.07553 0.59681,-0.284036 0.893546,-0.382948 0.360114,-0.120039 1.052205,-0.228227 1.404146,-0.255299 2.027754,-0.155982 4.088262,-0.04438 6.127173,-0.255299 1.455571,-0.150577 2.89532,-0.431853 4.340085,-0.638246 2.057887,-0.293984 0.70784,-0.03932 2.297689,-0.127651 5.28352,-0.293529 -1.664949,-0.03515 2.297692,-0.255299 0.467326,-0.02596 0.936742,0.02461 1.404144,0 2.642256,-0.139065 5.275104,-0.449736 7.914263,-0.638247 1.30082,-0.09292 2.66131,0.04319 3.95714,0 0.51208,-0.01706 1.02013,-0.100721 1.53179,-0.127651 1.70454,-0.08971 3.30721,0.30171 4.97833,0.510599 0.84636,0.105796 1.70646,0.05069 2.55299,0.12765 0.82034,0.07458 1.60349,0.280218 2.42534,0.382948 0.76669,0.09584 1.56261,0.04528 2.29769,0.255299 0.22282,0.277699 0.51481,0.06488 0.7659,0.127651 0.35991,0.08998 0.58684,0.484891 0.89355,0.638246 0.15223,0.07612 0.34913,-0.05382 0.51059,0 0.0964,0.03214 0.48998,0.275921 0.63825,0.127648 0.0399,-0.03991 -0.001,-0.746434 0,-0.765894 0.0313,-0.46894 0.0784,-0.93675 0.12765,-1.404147 0.09,-0.855239 0.17778,-1.700223 0.2553,-2.552988 0.18102,-1.991246 -0.0937,-4.007548 0.12765,-5.999525 0.0808,-0.727194 -0.004,-1.44332 0.12765,-2.170044 -0.14841,-0.58335 0.27973,-1.015701 0.38295,-1.531792 0.0417,-0.208618 0.0516,-0.43185 0,-0.638249 -0.0146,-0.05838 -0.10862,-0.07056 -0.12765,-0.127648 -0.17113,-0.513395 0.22448,-1.593437 0,-2.042393 -0.12176,-0.243519 -0.006,-0.139427 -0.12765,-0.382947 -0.019,-0.03806 -0.10862,0.03806 -0.12765,0 -0.0381,-0.07612 0.0269,-0.174567 0,-0.255299 -0.019,-0.05709 -0.10074,-0.07383 -0.12765,-0.127651 -0.11553,-0.231066 0,-0.75588 0,-1.021194 0,-0.218149 0.41497,-0.79792 0.12765,-0.510598 -0.0673,0.06728 -0.0851,0.170199 -0.12765,0.255299"
       id="path15" />
    <path
       style="font-variation-settings:'wght' 700;fill:none;stroke:#bac2de;stroke-width:1;stroke-linejoin:round"
       d="m 113.16831,46.46047 c -0.63535,1.058918 -0.54234,0.55253 -0.54234,1.446242 0,0.441931 0.17704,1.449983 -0.18078,1.8078 -0.17044,0.170442 0,-0.482079 0,-0.72312 0,-0.728482 -0.15504,-2.165022 0.72312,-2.530922 0.47525,-0.198022 1.05877,0.203303 1.44624,0.542341 0.1814,0.158726 0,0.482081 0,0.723122 0,0.0454 0.0773,1.523539 -0.18078,1.265459 -0.0953,-0.09528 -0.18078,-0.226814 -0.18078,-0.361561 0,-0.141131 0.66867,-2.26846 0.72312,-2.35014 0.12052,-0.180779 0.41198,-0.187743 0.54234,-0.361558 0.0914,-0.121862 0.0352,-0.795912 0.54234,-0.542341 0.59707,0.298532 -0.118,2.475693 0.18078,3.07326 0.27416,0.548317 0.9039,0.951307 0.9039,1.627021"
       id="path19" />
    <path
       style="font-variation-settings:'wght' 700;fill:none;stroke:#bac2de;stroke-width:1;stroke-linejoin:round"
       d="m 119.31483,46.822031 c 0.3013,0 0.6026,0 0.9039,0 0.72239,0 0.58131,0.03545 1.44624,-0.180779 2.58097,-0.645242 -1.23217,-1.104656 -1.26546,-1.08468 -1.07463,0.644779 -2.59684,3.492253 -0.9039,4.338719 0.52701,0.263507 1.68186,0.180782 2.16936,0.180782"
       id="path20" />
    <path
       style="font-variation-settings:'wght' 700;fill:none;stroke:#bac2de;stroke-width:1;stroke-linejoin:round"
       d="m 112.02897,54.762762 c -0.31837,0.53513 0,1.07198 0,1.642882 0,0.391163 0.0325,0.783678 0,1.173488 -0.005,0.05896 -0.2013,0.782326 -0.15647,0.782326 0.007,0 -0.0513,-0.164894 -0.0782,-0.312931 -0.0643,-0.353581 -0.31293,-1.200081 -0.31293,-1.564651 0,-0.430675 0.24016,-1.41365 0.54763,-1.721114 0.15754,-0.157549 0.42331,-0.141865 0.62585,-0.234696 0.42407,-0.194366 0.82632,-0.43443 1.25172,-0.625861 0.56617,-0.254773 1.39954,-0.39981 1.87759,0.07823"
       id="path22" />
    <path
       style="font-variation-settings:'wght' 700;fill:none;fill-opacity:1;stroke:#bac2de;stroke-width:1;stroke-linejoin:round"
       d="m 117.97464,54.371599 c -0.26291,0.679326 -0.27475,1.386689 -0.31293,2.112277 -0.0137,0.260416 0.0174,0.522129 0,0.782326 -0.0193,0.289322 -0.29363,1.525018 -0.15647,1.799349 0.0481,0.09617 0.0606,-0.206873 0.0782,-0.312931 0.0468,-0.280887 0.0498,-0.576635 0.0782,-0.860557 0.076,-0.759767 0.41662,-2.166834 0.54762,-2.581672 0.10536,-0.333629 0.26764,-0.652962 0.4694,-0.938792 0.11745,-0.166394 0.31293,-0.260773 0.46939,-0.391162 0.48892,-0.407427 1.18627,-0.954747 1.72112,-0.312931 0.22273,0.267279 0.15922,0.677391 0.2347,1.017024 0.0824,0.370652 0.25051,0.720727 0.31293,1.095256 0.0257,0.154334 -0.0307,0.315968 0,0.469394 0.0229,0.114359 0.14283,0.197107 0.15646,0.312931 0.0396,0.336685 -0.0199,0.678598 0,1.017021 0.10353,0.414126 0.0782,0.20541 0.0782,0.625862"
       id="path23" />
  </g>
</svg>
